/* XPM */
static char *b3c25070986f40529f68f2497ae1b64e6DIUAalI6qRfSnZL[] = {
/* columns rows colors chars-per-pixel */
"64 64 127 2 ",
"   c #75B32C",
".  c #79B52F",
"X  c #77B633",
"o  c #7AB731",
"O  c #76B832",
"+  c #7DBB34",
"@  c #7DBC39",
"#  c #7FC13D",
"$  c #80BD36",
"%  c #82BF39",
"&  c #82C037",
"*  c #85C23C",
"=  c #8BC63E",
"-  c #8BC83F",
";  c #90C63D",
":  c #90C83F",
">  c #84C340",
",  c #83C541",
"<  c #83C442",
"1  c #82C542",
"2  c #86C540",
"3  c #87C540",
"4  c #85C741",
"5  c #87C641",
"6  c #86C542",
"7  c #87C643",
"8  c #85C644",
"9  c #87C540",
"0  c #88C440",
"q  c #89C541",
"w  c #89C740",
"e  c #88C641",
"r  c #8AC640",
"t  c #8BC741",
"y  c #88C543",
"u  c #88C742",
"i  c #89C742",
"p  c #8AC642",
"a  c #8BC743",
"s  c #8CC540",
"d  c #8DC540",
"f  c #8DC641",
"g  c #8FC740",
"h  c #8EC641",
"j  c #8DC643",
"k  c #8EC742",
"l  c #8FC742",
"z  c #89C644",
"x  c #88C744",
"c  c #8AC745",
"v  c #8EC744",
"b  c #8CC641",
"n  c #86C842",
"m  c #86C844",
"M  c #87C945",
"N  c #88C840",
"B  c #89C941",
"V  c #8BC940",
"C  c #8AC841",
"Z  c #89C843",
"A  c #8BC942",
"S  c #8AC843",
"D  c #8ACA42",
"F  c #8BCB43",
"G  c #8CC940",
"H  c #8EC840",
"J  c #8FC941",
"K  c #8CCA41",
"L  c #8DCA41",
"P  c #8CC842",
"I  c #8DC943",
"U  c #8FC843",
"Y  c #8CCA43",
"T  c #8ECB42",
"R  c #8FCC43",
"E  c #89C845",
"W  c #8AC944",
"Q  c #8BC944",
"!  c #88CA44",
"~  c #8BCA45",
"^  c #88C947",
"/  c #8AC946",
"(  c #8BCA47",
")  c #8CC844",
"_  c #8DC945",
"`  c #8DCB44",
"'  c #8CCA45",
"]  c #8ECA44",
"[  c #8FCB45",
"{  c #8CC947",
"}  c #8CCB46",
"|  c #8DCB46",
" . c #8ECA46",
".. c #8FCB47",
"X. c #8CCC44",
"o. c #8ECC45",
"O. c #8DCC47",
"+. c #8ECC47",
"@. c #8CC942",
"#. c #87CA49",
"$. c #8CCB48",
"%. c #8ECB49",
"&. c #8BCD49",
"*. c #8DCC49",
"=. c #8ECD48",
"-. c #8FCD48",
";. c #8CCD4B",
":. c #90C541",
">. c #91C640",
",. c #92C741",
"<. c #91C541",
"1. c #91C940",
"2. c #90C841",
"3. c #90CA40",
"4. c #91CB41",
"5. c #91C942",
"6. c #90C843",
"7. c #93C842",
"8. c #90CA42",
"9. c #90C944",
"0. c #91C944",
"q. c #91CA45",
"w. c #92CA45",
"e. c #90CC46",
"r. c #90CE47",
"t. c #90C943",
"y. c #90CC48",
/* pixels */
"= - q * 7 / / = = ; ; ; ; = = = H = f f q H / ' 7 q = q f f H = ; ; = - H ! q / < * / +.f = : = = ; f <.f f f ! f z q ! / H q 7 ",
"H = % + @ * ! - = = ; ; ; = - - H H f q.H q * * / ! H H f f = - = - H 1.' / / z @ + * q * = 1.= ; = f f f f q H z H / q q ! / +.",
"= = * $ * q ! = : ; = ; = = - = = = f <.7 % O o q q q ! f f - : ; f f ! = ! ! q * % 7 ! ! = - H = f <.= f f f f q H ! = * $ * +.",
"* = H q ' H ! = - = = ; - = = ! 1.H f f q = * * ! ! q f f f ; - - H f q ! H H ! e.! H H f H H = <.; = <.f f f f H ' f * @ @ * 7 ",
"; - - - - H ! - ; = = ; 1.q / R ! = f d = ! / ' ' H q ' <.f = = = q X.H H ' H = H f = 7 H ! q / - : f = ; f = 1.= H H = * * = f ",
": ; = = ! ! = ! = = = ! = * * q = = = = = = q / q * % = f f = q ! ! 7 * * H H = = = = = ! H ! / <.= <.; f ; : - = H q H H ! ! H ",
"= ; = - ' q ! ! : - H H * + @ * ' H H 1.H / H ' * @ + % f ' = f ' ! % o $ = H - ; : = = H q * * f ; f = = ; H = H - : = - ! = = ",
"; = = = q ! f H = = H H * @ * 7 H f f f q q q ' ! % % = H f = f q q = % % = ; = = - = = / * X o f = = 1.<.- = H = = - - - H H - ",
"= = ! H ! q q +.f - - - ' / ! ' = = f f q q ! q / +.H q f q.H q ' / ! H ' f = ; : : : - H q / q = H 1.= = : : = - 1.- = = H ! = ",
"; 8.- = H +.! @ = H - = f q 7 7 H = f f H H ! q ! / H q f f = q 7 7 = ! H = ; = = = = - q ! / ! H = = = - - = - = = H H - H - = ",
"= = q * 7 q % X @ = H = q ' / ' q = = d / = 7 / q ! q H f f = H ! ! q q = = - H = = <.H ! = H ! ' q = ! 1.f = - H - - - - - - - ",
"= = H +.*.8 * * $ = q = H / / q v = d ' ! = 7 H H q q f = = = H H H ! - q = ! R H H = ! = ! q = q = q H / H - - H - - - - = - - ",
": = q ! M 8 / +.H H - H ! * + + f = 1.q.= $ @ * ! q q H s s = = = f ! f = q = * v ! ! - f q q q = / ' * * q H ! - - - ! - - - - ",
"- = % O @ M ( 7 *.H = : H * + @ = = f f % + @ % q / H ! v f = = = = <.! ! * @ + q q q = H - H H 7 ' ! * O * ! = = ! - ! - R - - ",
"H H * @ # M &.q q q = = 8.= * ' q - q.1.q = ! ' / H = % = f H = ; : 1.H = * * @ / 7 q ! ! = 1.H = ! q * % * q q ! ! * & * n D - ",
"! ! ' *./ 7 q ' q q.- = - ! q ' f = q q = q H q ' q % . o = 1.= = f = = = ! / / / ! ! = = = = 1.! / ' q v ' ' ' H = & . o - - - ",
"- - - q = H f H 1.f = q ' *.' 7 ! = f f = ; H H f q = = = 7 v / f <.f = q H f ! +.X.q = f H f = * = = = f f f f f f = = s s s 7 ",
"- ! - - H - f f f f v z * * * ! f <.f f = - ; = H H ! ' ' q z q v f f = ! q = * @ * H H q q ! ' H q.f q f <.H f <.f f f d d f q ",
"- - - - f f f f = f +.* @ + @ / ! ! = f - - f H = = = = q q / f f f f f H H = * O * H +.H q = q q f ' H f f <.f f f f f = ! q H ",
"- - = - f f <.' f - q * * * 7 q = f <.f ; <.- = H H q H ! q z ! f f f f f ! = * & * q q H ! = * + * f ' f f f f f f = f f - q q ",
"1.H f f q = * * ! - = = q ' ' q H q H q H - ; H = = H ' z * $ + f 6.q.v q ! f q H ! = = f H * % o * q H ! f f f f f f H f ! = ! ",
"f H f 1.= * @ + * - ! - H H v q q f ! f = H - f = = q - 7 * @ + s f q.f = - q H ! H H ! = ! ! f * ! H = = q H f = f ! q q H ! = ",
"= f = f = * * + = - H ! q q q f ! H ! = q H = - 1.H H q = q / ' f f <.f q q q H * H H ' q H ! H H R +.! q f H q q = q H ! = = = ",
"<.f f ! H ! R ! ! ! q q f H <.f f ! f f ! f H ; = - q q H q q f f v H f H / H = ! ! f q / H f q ! H ! = H ! ! = q f ! H H = ! ! ",
"= d f ' ' ! = * D n - - 6.f 6.f q ' ! $ . & H - : 1.H q q H / * f f f f q = q q ! H ! q = = q H q ! q = - - = 7 H ! % O o f H q ",
"f f = = * = ! R - D ! ! f f f d q / = * o * - = = = ! H H q / +.f d f = q f ' H = ! = f H ! H q H H * 7 ! +.D H = ! * + % = ! = ",
"' f q f H ! * = @ * H H f f = ! ! n ! q = = - = R * = R = $ & q f f f f q q ! = ! H H = q q f ! f 1.v = % $ = ' ! = = = = ! f f ",
"v / q f R ! * @ o * * = = H 1.= ' q q ' ! - - - R - = H = o O * f f <.q.H = % $ = +.' = % $ = H = v 1.= $ O $ ! = ! ! H f f v 1.",
"/ * @ $ * = q = * = f = = = - = q 7 7 X.! = - ! - - - - = * * = q f f f = * + o * ! H * + + * H f f = = q = * q H q q H f = = <.",
"/ * @ @ * H q.q.f <.q.f ! = - - @ + * / ! * H H - - - - H 1.+.' f f f f * = = * q = q ! q = = q v f d d f f ' H ! q q q f q f f ",
"n q * = q H f f 1.6.H 1.- * - ! + @ * / - ! - H - - - - ! H +.q <.f H f H H q f H ! q f ' H v q d d 6.v f = ! H = H f f f <.<.f ",
"! ! +.! ! f f f f f ' ' = $ * n / ! q / - = - - = - - ! q q ! H = f f f ! q q * = ! f f = q q f v s = s q.' H = q q q = f f f = ",
"- - - = - - - - ! n ! / 1 O @ * $.z 6 f H f f f H q = / / 8 / / / ! - - ! - - H - : = = ; f - = q / ' = $ + * / ! q q q z q ' v ",
"= = = = - = - - = - * O O 1 #.8 { d = = s = f f q H *.q + + @ *.q f ! * @ + * ! = <.7.; ; = = = ! H ! 7 * @ * / q ! ' $.+.' ! q ",
"- = = = - - - - - ! * O # #.;.7 y v q.f f f H = f ! f * @ @ 7 / q H / = @ @ * H = = 7.7.<.= f - / f q q q 7 q ! H ' ! * % 7 ! H ",
": - = = - - = - H ! / &.( #.8 q q v H f q v 1.= <.= = q ' ' / q ! f ! - - - = ! = f ; f = 1.H H - ! / ' / H ' / ' ' * + + % z ' ",
"- = = 1.- - - - ! * ! +.' * 7 e.$.' * o $ = = = = - 1.1.<.f q = f q = ! ! R ! * f f = ; - - = * q H 1.H H q q = q ' ' * % * H q ",
": = f f = & = = - = = - / v q ! ' / * @ $ = 1.= = <.1.= = f f f f f f H - = ! H f f = = - - & o * = ! f ! q = q = H q.H q H ' q ",
"f f f f * $ o * - - ! H f ' f * q q = * - - = = ; = = = = 1.1.<.f 1.H q = ! = H f f = = - = * + $ * = = = : 1.1.H H = = = : H H ",
"f f 6.q.* $ * q H - H q = = f q.! ! ! R - - - : = : : ; = = <.= <.f f q H H ! q f H = = = = - - - - ; = = - = = = = = = 1.= = - ",
"f f f f f q H q H q - 1.f = = = q n n - - - = - = ; ; = = ; ; f = = ; H - - = H f f f f ! ! - H - = = H H = = 1.- = = f - = H = ",
"f f f f ! f ! H = = = = = ; <.1.! - - - ! - - : = = = ; = = = = <.<.H H ! - = * ' f d = = = ! H H H H = H 1.= = ; - 1.= ; H - H ",
"= f = H q H q ! R ! - - = = ; 1.* @ o & q H - 1.1.1.H H ; ! f q = = f = = & + o d f f f = ! ! = = = = = = 1.; = H = : : = 1.= : ",
"f ; = ; ! q H - ! - - ! 1.= = = * @ $ * +.H - - - - = - f = = = ; 1.: ! - * & @ = 6.f % % * - = - - H 1.H = ; : f - = - = = H = ",
"; = = = - - - ! # + & - : = = H e.H ! ' H * + + q = * ! / / / ' f = - H R - - D d f % $ o $ q ! R = - 1.= $ $ & H ; H = H H f - ",
"= ; ; ; - - ! - + @ & - H : = 1.q q - / = % + o H ! H X.n * < M = = = = - - - - d v = = % % = ! = = = - * o $ ; H - = - - ; : = ",
"; ; = = - - - - - - - - R - = - = q q f ! ' - - = * n n # @ @ @ H 1.H - - - * - s f <.q.w.6.z 7 q H H ' f = q H q H q H ! H f ! ",
"; = - = - - = ! H ! ! ! - = = q ! H f = = H 1.H - ! R D # # * ! q = H ! - - - - q d = q 7.<.v H q ' f = = ' ' = f ! H q = q f f ",
"- - - : f f f f H q = q H H ' ! 8.- : = ; - <.- ; - - H f H q f = = ; = 1.: - - - - - - - - - q f H f f f f f f f H f f f f q H ",
": - = - f f f <.q.' ' q ! * ! H - : = ; f ; = = - <.= - - f - - <.<.= = = = = = H H ! - - H - = f <.f f f f <.f f f f f f f q q ",
"H ! f q f q.f = = d q * + + * = - : - - - H = = = - - ; 1.= = H H f f f f H H ! * ! q = = ! ! = f H f <.f f f f f f f f ' ' H ! ",
"= ! H H f f f q = f H q & & * ! - - - - : = = 1.- f H H = : - = f f f ! H ' = = H = H ' f = q v f <.f f f f f f f f f f = q f H ",
"! ! - - * = ! H ' H ' H ! q H ! - - - - - - - D ; H = - ; H = H q ! H ! ! * $ $ e.q H +.= + + s f f f f f f q H q H q * $ % * H ",
"- ! - # @ * = R q q * = H H n = - - - - - - - - - f : = - f H ; ! H ! H = * + O q = * H = o o = f f f f f f = ! q ' H = $ $ * ' ",
"= n - # + * * - H ! ! q ' H H ! - - - - - - - - - - ; - = ; f - H q ! q ! q q * ' q ' ' ' q z ' H f f f q f q H H ! H q = * f f ",
"- D D - = ! R * H f H q = * = f # # - - - - - - - - H f : - <.- ! ! ! q ! / ' ' q ' ' z f ' ' q q ! ! = H ! H q f q q ! H ' H q ",
"= ! ! * = ! H f H ' H q q f = +   + = - - - - - - - = H H = f f H q ! / ! 7 q ' q 7 q / ' f q q ! = H ' = $ $ q H q H q H q H q ",
"* q H H R +.* * = q H f f H f * * - - - - - - R - - H = = H = f * @ + * ! H H ! / / H q z q / H q q = H * + o * = ! q f ! = ! H ",
"H ! H ! ! = % o % * ' ! f f f f ' ! q H - - # & f f f f <.H f f * $ @ * ! H ! = = H q.H q f q q H H ' ' f = q ' H ! f f f f f f ",
"f f q = q = % $ % = f q s f f f q = q ' - * o o f = f f f f H <.H ! = ! ! = ! q = H ! * * * = = q q q H q q H f q H f f f f f f ",
"f = f f d f v ' q f H f f f f f 6.q f f <.% % % = s s f f f v f = q v H f q q H ! H * o o $ q H ! H f q f f f = f f f f f f f <.",
"<.<.<.f d d f ' H ' f f f f f d v d f f f v 7.6.d s f f f f f f f f f f H H f ! - R q * % = ! ! H ' H q f q.f f f f f f f <.f f ",
"<.<.<.<.f = = f ! q f f f f f f d d <.d 6.6.f d f f f f f f f f 1.f = = H 1.- = - - R R 1.H - = * = f f f f f H <.H f f f H f <.",
"<.; = <.<.d f ' H H v H <.' <.<.f 6.f = = <.d = f f f f f f f f ; = 1.= H f ; - - = * * = - = H ' ' f H f f f f f f <.f f <.f f "
};
