/* XPM */
static char *ca8933fb15c54cd68b63b56a76bdbb33EnXaOH26st6hNKu1[] = {
/* columns rows colors chars-per-pixel */
"64 64 11 1 ",
"  c None",
". c #E71E61",
"X c #E51F62",
"o c #E81C62",
"O c #E81D63",
"+ c #E91D63",
"@ c #E81F62",
"# c #E91E63",
"$ c #E91F63",
"% c #F54F89",
"& c white",
/* pixels */
"                             ##$$#$                             ",
"                             ######                             ",
"                        ## # #######  ####                      ",
"                       ###################                      ",
"                        ##################                      ",
"                  # ### %#%%%#################                  ",
"                   #####%%%%%##################                 ",
"                  ######%%%%%###################                ",
"                  #######%%%####################                ",
"            # ####%#%%%#%%%%%##################### ##           ",
"             ######%%%%%%%%%%#######################            ",
"            ######%%%%%%%%%%%#######################    #       ",
"        #####%%%#%%%%%%%%%%%%&&&#&&&################# ###@      ",
"        ####%%%%%%%%%%%%%%%%%&&&&&&&######################$     ",
"       #####%%%%%%%%%%%%%%%%&&&&&&&&&#####################      ",
"        ####%%%%%%%%%%%%%%%%%&&&&&&&&&&#&#################      ",
"        #####%%%%%%%%%%%%%%%%&&&&&&&&&&&&################       ",
"  #   # %%##%%%%%%%%%%%%%%%%%&&&&&&&&&&&&###############&#  # # ",
" #######%%%%%%%%%%%%%%%%%%%%&&&&&&&&&&&&&&##########&#&&&&#####.",
" .#####%%%%%%%%%%%%%%%%%%%%%%&&&&&&&&&&&&&###########&&&&&######",
" .#####%%%%%%%%%%%%%%%%%%%%%%&&&&&&&&&&&&&##########&&&&&&$$###.",
" .######%%%%%%%%%%%%%%%%%%%%%&&&&&&&&&&&&###########&&&&&&$$##O ",
" .######%%%%%%%%%%%%%%%%%%%%%&&&&&&&&&&&&###########&&&&&#$$OOO ",
"..######%%%%%%%%%%%%%%%%%%%%%&&&&&&&&&&&&##########&&&&&&&$O$OOO",
" ######%%%%%&&%&&%%%%%%%%%%%&&&&&&&&&&&&&&##########&#&&&#######",
" #######%%%%&&&&&&%%%%%%%%%%%&&&&&&&&&&&&&############+$######O.",
" .######%%%%%&&&&&&%%%%%%%%%%&&&&&&&&&&&&#############$+####OOOO",
"  ######%%%%%&&&&&&%%%%%%%%%%&&&&&&&&&&&&#############+$# ## OO ",
" ..#####%%%%&&&&&&%%%%%%%%%%%&&&&&&&&&&&&###########$$$+$$      ",
" .#####%%%%%&&&&&&&%%%%%%%%%&&&&&&&&&&&&&&##########$$+$$$      ",
" .#####%%%%%&&&&&&%%%%%%%%%%%&&&&&&&&&&&&&##########$   $       ",
" .######%%%%%&&&&&%%%%%%%%%%%&&&&&&&&&&&&###########            ",
" .######%%%%%&&&&&%%%%%%%%%%%&&&&&&&&&&&&###########            ",
"  ######%%%%%&&&&&&%%%%%%%%%%&&&&&&&&&&&&##########             ",
" .######%%%%&&&&&&%%%%%%%%%%%&&&&&&&&&&&&########### # ###      ",
" ######%%%%%&&&&&&%%%%%%%%%%&&&&&&&&&&&&&&################      ",
" .######%%%%&&&&&&&%%%%%%%%%%&&&&&&&&&&&&###############$$      ",
"  ######%%%%%&&&&&&%%%%%%%%%%&&&&&&&&&&&&###############$  $    ",
" .######%%%%%&&&&&%%%%%%%%%%%&&&&&&&&&&&&###############$$$$OO#.",
" #######%%%%%&&&&&%%%%%%%%%%%&&&&&&&&&&&&&##############$+$$OOOO",
"..######%%%%&&&&&%%%%%%%%%%%%&&&&&&&&&&&&&######+$+$+$+$+$+$+$++",
" ######%%%%%%&%%%%%%%%%%%%%%&&&&&&&&&&&&&&######$+$+$+$+$+$+$+O+",
" .######%%%%%%%%%%%%%%%%%%%%%&&&&&&&&&&&&#######+$+$+$+$+$+$$O++",
"  ######%%%%%%%%%%%%%%%%%%%%%&&&&&&&&&&&&#######$+$+$+$+$+$+$OO ",
" @######%%%%%%%%%%%%%%%%%%%%%&&&&&&&&&&&&#######+$+$+$+$+$$$$$++",
"  @####%%%%%%%%%%%%%%%%%%%%%&&&&&&&&&&&&&&######$+$+$+$+$+$$$$O ",
"   # ###%%##%%%%%%%%%%%%%%%%&&&&&&&&&&&&&&######+$+$+$+$+$ $$O O",
"       ######%%%%%%%%%%%%%%%%&&&&&&&&&&&&&######$+$+$+$$$       ",
"        #####%%%%%%%%%%%%%%%%&&&&&&&&&&&&$+$+$+$+$+$$+$+$+      ",
"        #####%%%%%%%%%%%%%%%%&&&&&&&&&&&&+$+$+$+$+$++$+$+$      ",
"       $####%%%%%%%%%%%%%%%%%&&&&&&&&&&#+#+$+$+$+$+$$+$$$+      ",
"        $###%%%%%%%%%%%%%%%%&&&&&&&&######$+$+$+$+$++$+$+$      ",
"         $##%%%%%%%%%%%%%%%%%&&&&&&#########+$+$+$+$+$$$$$      ",
"            #%#%##%%%%%%%%%%%&&##&#&########$+$+$+$+$   $       ",
"             ######%%%%%%%%%%###############+$+$+$+$            ",
"            $#####%#%%%%%%%%%###############$+$$$+$+            ",
"               ## ####%##%%%############+$+$+$$$ $              ",
"                 #######%%%%%###########$$$+$+$                 ",
"                  # #   %###%###########$$  +$                  ",
"                        ################$                       ",
"                        ################+$                      ",
"                       #################$$                      ",
"                  .###  ############ ###$$                      ",
"                   .     #   ######    #$                       "
};
