/* XPM */
static char *_fc56ad6d5cc463b930330488f1016a1yj0RLIdL3FKugnuc[] = {
/* columns rows colors chars-per-pixel */
"64 64 11 1 ",
"  c None",
". c #E71E61",
"X c #E51F62",
"o c #E81C62",
"O c #E81D63",
"+ c #E91D63",
"@ c #E81F62",
"# c #E91E63",
"$ c #E91F63",
"% c #F54F89",
"& c white",
/* pixels */
"                             ##@$$$                             ",
"                             ###+++                             ",
"                      ####  ####$+$ $ +$                        ",
"                      ##########+$+$++$+#                       ",
"                      ##########$+$+$+$+                        ",
"                  ##############+$+%%%$% ### #                  ",
"                 ###############$+$%%%%%#####                   ",
"                ################+$+%%%%%######                  ",
"                ################$+$+%%%#######                  ",
"           ## ##################+$$%%%%%#%%%#%#### #            ",
"            ####################+$+%%%%%%%%%%######             ",
"       @    ####################$+$%%%%%%%%%%%######            ",
"      @### #################&&&#&&&%%%%%%%%%%%%#%%%#####        ",
"     #######################&&&&&&&%%%%%%%%%%%%%%%%%####        ",
"      #####################&&&&&&&&&%%%%%%%%%%%%%%%%#####       ",
"      #################&#&&&&&&&&&&%%%%%%%%%%%%%%%%%####        ",
"       $###############&&&&&&&&&&&&%%%%%%%%%%%%%%%%#####        ",
" @ +  #&###############&&&&&&&&&&&&%%%%%%%%%%%%%%%%%##%% #   #  ",
"#++$##&&&&#&##########&&&&&&&&&&&&&&%%%%%%%%%%%%%%%%%%%%####### ",
".+++##&&&&&###########&&&&&&&&&&&&&%%%%%%%%%%%%%%%%%%%%%%#####. ",
".#####&&&&&&##########&&&&&&&&&&&&&%%%%%%%%%%%%%%%%%%%%%%#####. ",
" #####&&&&&&###########&&&&&&&&&&&&%%%%%%%%%%%%%%%%%%%%%######. ",
" +#####&&&&&###########&&&&&&&&&&&&%%%%%%%%%%%%%%%%%%%%%######. ",
"O+####&&&&&&&##########&&&&&&&&&&&&%%%%%%%%%%%%%%%%%%%%%######..",
"O++$+$+&&&#&##########&&&&&&&&&&&&&&%%%%%%%%%%%&&%&&%%%%%###### ",
"O+$+$+$+##############&&&&&&&&&&&&&%%%%%%%%%%%&&&&&&%%%%####### ",
"O$+$+$$+###############&&&&&&&&&&&&%%%%%%%%%%&&&&&&%%%%%######. ",
" ++ $+ $###############&&&&&&&&&&&&%%%%%%%%%%&&&&&&%%%%%######  ",
"      $+###############&&&&&&&&&&&&%%%%%%%%%%%&&&&&&%%%%#####.. ",
"      +$##############&&&&&&&&&&&&&&%%%%%%%%%&&&&&&&%%%%%#####. ",
"       +   ###########&&&&&&&&&&&&&%%%%%%%%%%%&&&&&&%%%%%#####. ",
"            ###########&&&&&&&&&&&&%%%%%%%%%%%&&&&&%%%%%######. ",
"            ###########&&&&&&&&&&&&%%%%%%%%%%%&&&&&%%%%%######. ",
"             ##########&&&&&&&&&&&&%%%%%%%%%%&&&&&&%%%%%######  ",
"      ### # ###########&&&&&&&&&&&&%%%%%%%%%%%&&&&&&%%%%######. ",
"      ################&&&&&&&&&&&&&&%%%%%%%%%%&&&&&&%%%%%###### ",
"      #################&&&&&&&&&&&&%%%%%%%%%%&&&&&&&%%%%######. ",
"    #  ################&&&&&&&&&&&&%%%%%%%%%%&&&&&&%%%%%######  ",
".######################&&&&&&&&&&&&%%%%%%%%%%%&&&&&%%%%%######. ",
"+#####################&&&&&&&&&&&&&%%%%%%%%%%%&&&&&%%%%%####### ",
"O+$+$+$+##############&&&&&&&&&&&&&%%%%%%%%%%%%&&&&&%%%%######..",
"O++$+$+$##############&&&&&&&&&&&&&&%%%%%%%%%%%%%%&%%%%%%###### ",
"O+++$+$+###############&&&&&&&&&&&&%%%%%%%%%%%%%%%%%%%%%######. ",
" ++$+$+$###############&&&&&&&&&&&&%%%%%%%%%%%%%%%%%%%%%######  ",
"O+$+$+$+###############&&&&&&&&&&&&%%%%%%%%%%%%%%%%%%%%%######X ",
" $+$+$+$##############&&&&&&&&&&&&&&%%%%%%%%%%%%%%%%%%%%%#####  ",
"+ $++ $+##############&&&&&&&&&&&&&&%%%%%%%%%%%%%%%%##%%### @   ",
"       $##############&&&&&&&&&&&&&%%%%%%%%%%%%%%%%######       ",
"      $+$+$+$+$+#######&&&&&&&&&&&&%%%%%%%%%%%%%%%%#####        ",
"      +$+$+$+$+$#######&&&&&&&&&&&&%%%%%%%%%%%%%%%%#####        ",
"      $+$+$+$+$+#########&&&&&&&&&&%%%%%%%%%%%%%%%%%####@       ",
"      +$+$+$+$+$############&&&&&&&&%%%%%%%%%%%%%%%%###@        ",
"      $+$+$+$+$+#############&&&&&&%%%%%%%%%%%%%%%%%##@         ",
"       $   $+$+$############&#&##&&%%%%%%%%%%%##%#%#            ",
"            $+$+###################%%%%%%%%%%######             ",
"            +$+$###################%%%%%%%%%#%######            ",
"              + ####################%%%##%#### ##               ",
"                 ##################%%%%%#######                 ",
"                  ##  #############%###%   # #                  ",
"                       #################                        ",
"                      ##################                        ",
"                      ###################                       ",
"                      ##### ############  ###.                  ",
"                       ##    ######   #     .                   "
};
