/* XPM */
static char *_c962878f03a4109bbc0cebdceecbdf5YjQRCH9HRCIUoPMM[] = {
/* columns rows colors chars-per-pixel */
"64 64 11 1 ",
"  c None",
". c #E71D61",
"X c #E71E61",
"o c #E81C62",
"O c #E81D63",
"+ c #E91D63",
"@ c #E81F62",
"# c #E91E63",
"$ c #E91F63",
"% c #F54F89",
"& c white",
/* pixels */
"                                           ##                   ",
"                              #    # #     ##X                  ",
"                              #   ####    ####X                 ",
"                       #    ##########  #######XXX              ",
"                       #   ######%##### ########X               ",
"                ###  ##########%%%%###%%#%########              ",
"                ### ######%###%%%%%###%%%%########X             ",
"           ## #####%####%#%%#%%%%%%#%%%%%%#########X            ",
"          #### ####%%##%%%%%%%%%%%%%%%%%%%%########XX           ",
"         @$+#####%%%%##%%%%%%%%%%%%%%%%%%%%%%########X          ",
"        @$$$####%%%%%%%%%%%%%%%%%%%%%%%%%%%%%#########X         ",
"        @$$$#####%%%%%%%%%%%%%%%%%%%%%%%%%%%%%#########         ",
"         ##########%%%%%%%%%%%%%%%%%%%%%%&%%%%%#%########       ",
"         ##########%%%%%%%%%%%%%%%%%%%%%&&%%%%%%%########X      ",
"         ###########%%%%%%%%%%%%%%%%%%%&&&%%%%%%%#########X     ",
"      ###############%%%%%%%%%%%%%%%%%&&&&&&&%%%%%##########XX  ",
"     ###############&&&%%%%%%%%%%%%%%%&&&&&&&&%%%%%#%#######X   ",
"    ###############&&&&%%%%%%%%%%%%%%%&&&&&&&%%%%%%%%########X  ",
"     ##############&&&&&%%%%%%%%%%%%%%&&&&&&&&%%%%%%%#########  ",
"      ###########&&&&&&&&&%%%%%%%%%%%%%%&&&&&&&%&%%%%%######### ",
"      ##########&&&&&&&&&&%%%%%%%%%%%%%%&&&&&&&&&&%%%%%#########",
"     ############&&&&&&&&&&%%%%%%%%%%%%%%%&&&&&&&&%%%%%%%######@",
"    ############&&&&&&&&&&&&%%%%%%%%%%%%%%%&&&&&&&%%%%%%%#####  ",
"    #############&&&&&&&&&&&&%%%%%%%%%%%%%%&&&&&&&&%&%%%%%#%##  ",
"    ############&&&&&&&&&&&&&&%%%%%%%%%%%%%%%&&&&&&&&%%%%%%%#   ",
"    ############&&&&&&&&&&&&&&&%%%%%%%%%%%%%%&&&&&&&&%%%%%%%##  ",
"     ##########&&&&&&&&&&&&&&&&&%%%%%%%%%%%%%%%&&&&%%%%%%%###   ",
"    ############&&&&&&&&&&&&&&&&&&%%%%%%%%%%%%%%%%%%%%%%%#####@@",
"    ############&&&&&&&&&&&&&&&&&&%%%%%%%%%%%%%%%%%%%%%%%###### ",
"  ##############&&&&&&&&&&&&&&&&&&&%%%%%%%%%%%%%%%%%%%%%%###### ",
"  ###############&#&&&&&&&&&&&&&&&&&%%%%%%%%%%%%%%%%%%%%%%#%###@",
"    ################&&&&&&&&&&&&&&&&&&%%%%%%%%%%%%%%%%%%%%%%%## ",
"    #################&&&&&&&&&&&&&&&&&%%%%%%%%%%%%%%%%%%%%%%%%  ",
"    ################&&&&&&&&&&&&&&&&&&&%%%%%%%%%%%%%%%%%%%%%%#  ",
"#@#####################&&&&&&&&&&&&&&&&&%%%%%%%%%%%%%%%%%%%%###@",
" #######################&&&&&&&&&&&&&&&&&%%%%%%%%%%%%%%%%%%%### ",
" #######&###############&&&&&&&&&&&&&&&&&&%%%%%%%%%%%%%%%%####  ",
"@ ######################&#&&&&&&&&&&&&&&&&&%%%%%%%%%%%%%%%####  ",
"    #&&&&&&################&&&&&&&&&&&&&&&&&&%%%%%%%%%%%%%%#    ",
"    #&&&&&&&&&##############&&&&&&&&&&&&&&&&&&%%%%%%%%%%%#####  ",
"    #&&&&&&&&###############&&&&&&&&&&&&&&&&&&%%%%%%%%%%%%###   ",
"  ####&&&&&&################&#&&&&&&&&&&&&&&&&&%%%%%%%%%%###    ",
"  #####&&&&&###################&&&&&&&&&&&&&&&&&%%%%%%%%%###    ",
" #######&&&####################&&&&&&&&&&&&&&&&&&%%%%%%###      ",
"oo$$##########################+&&&&&&&&&&&&&&&&&&&%%%%%%%       ",
" oo$############  #############$&#&&&&&&&&&&&&&&&&#%%%%%%#      ",
"    ####### ###      #########$+###&&&&&&&&&&&&&#####%%#####    ",
"    X###### ###     ##########+$###&&&&&&&&&&&&######%#####@    ",
"    $o$$$          $$$$+$+$+$+$+###&&&&&&&&##&############@     ",
"     $o$$          $+$+$+$+$+$+$####&&&&#&###&###########@      ",
"      $          $+$$+$+$+$+$+$+########################@       ",
"                $+$$+$+$+$+$+$+$#######################@        ",
"                 $$$+$+$$+$+$+$+######################@         ",
"                   $$+$++$+$+$+$#####################@          ",
"                  +$+$+$$+$+$+$+####################@           ",
"                 +$+$+$++$+$+$+$####################            ",
"                +$+$+$+$##########################@             ",
"               $$+$+$+$+##################### ###@              ",
"              $o+$$++$+$###################   ##@               ",
"               O+$+$$+$+###################   #@                ",
"                #X$$####  ############  #                       ",
"                 # $####  ############                          ",
"                   #####################  ###X                  ",
"                       ##   #######   #     X                   "
};
