/* XPM */
static char *_c4a15e98f664864833d34c16ff076b2tNKFIvCniFJRpHZF[] = {
/* columns rows colors chars-per-pixel */
"64 64 13 1 ",
"  c None",
". c #E71D61",
"X c #E71E61",
"o c #E81C62",
"O c #E91D62",
"+ c #E81D63",
"@ c #E91D63",
"# c #EA1D63",
"$ c #E81F62",
"% c #E91E63",
"& c #E91F63",
"* c #F54F89",
"= c white",
/* pixels */
"                       XX               XX                      ",
"                  %  %XXX%  X  XX  %  X%XXX                     ",
"                 %%%%%%%%%%%XX%%%%%%%%%%%%%%% %                 ",
"                  %%%%%%%%%%%%%%%%%%%%%%%%%%%%$                 ",
"                  %%%%%%%%%%%%%%%%%%%%%%%%%%%%                  ",
"                  %%%%%%%%%%%%%%%%%%%%%%%%%%%%%                 ",
"                 %%%%%%%%%%%%%%%%%%%%%%%%%%%%%%                 ",
"              %   %**%%%%%%%%**%%%%*%%%%%%%%%*%%% $$            ",
"              %%  *%**%%**%%*%***%%**%*%%**%%**%%%$             ",
"             %%%%******************************%%%%% %          ",
"            %%%%%%****************************%%%%%%%           ",
"            %%%%%%****************************%%%%%%%           ",
"         % %%***%*******==**===***===***=******%%%**** %&       ",
"          %%%****%*******======**=*===**==******%%****&%        ",
"         %%%*************=================***********&&&        ",
"         %%%%***********=================*************&&&       ",
"         %%%%***********=================*************%%%       ",
"         %%%*************===============*************%%% %%     ",
"     %  %%%*%*************==*==**==*==****************%*%%%     ",
"      %%%%*********************************************%%%      ",
"      %%%*%********************************************%%%%     ",
"     %%%%***********************************************%%%     ",
"      %%%************************************************%      ",
"   %  %%%%***********************************************%   %  ",
"  %%%***%***********************************************%**%%%$ ",
"  %%%%*****************************************************%%%$ ",
"   %%%****************************************************%%%%$ ",
"  %%%******************************************************%%%$ ",
"  %%%***%*****=***=**********=*****=*********==*********%**%%%$ ",
"%%%%%%%%%%%%%=========================================%%%%%%%%  ",
"%%%%%%%%%%%%%=========================================%%%%%%%%$ ",
"$%%%%%%%%%%%=========================================%%%%%%%%%$ ",
"%%%%%%%%%%%%%=========================================%%%%%%%%% ",
"%%%%%%%%%%%%%=========================================%%%%%%%%$ ",
"$%%%%%%%%%%%=========================================%%%%%%%%%$ ",
"  %%%%%%%%%%%=======================================%=%%%%%%%%$ ",
"   %%%%%%%%%%%=====================================%%%%%%%%%%%  ",
"   %%%%%%%%%%%======================================%%%%%%%%%%$ ",
"  %%%%%%%%%%%%%=====================================%%%%%%%%%%$ ",
"  %%%%%%%%%%%%%%==================================%%%%%%%%%%%%$ ",
"  %%%%%%%%%%%%%%==================================%%%%%%%%%%%%$ ",
"  %%%%%%%%%%%%%%%%===%%%%=%%%==%%%%=%%%===%%%====%%%%%%%%%% %%$ ",
"  %% %%%%%%%%%%%%%%==%%%%%%%%%=%%%%%=%%%==%%%%==%%%%%%%%%%%  %  ",
"      %%%%%%%%%%%%%%%%%%%%%%%%%%%%%%%%%%%%%%%%%%%%%%%%%%%%      ",
"     %%%%%%%%%%%%%%%%%%%%%%%%%%%%%%%%%%%%%%%%%%%%%%%%%%%%%%     ",
"     %%%%%%%%%%%%%%%%%%%%%%%%%%%%%%%%%%%%%%%%%%%%%%%%%%%%%%   % ",
"      %%%%%%%%%%%%%%%%%%%%%%%%%%%%%%%%%%%%%%%%%%%%%%%%%%%%   %XX",
"       %%%%%%%%%%%%%%%%%%%%%%%%%%%%%%%%%%%%%%%%%%%%%%%%%% %     ",
"         %%%%%%%%%%%%%%%%%%%%%%%#+#++&+&+&+&+&+&%%%%%%%%        ",
"         %%%%%%%%%%%%%%%%%%%%%%%&&&&#&#&#&#&#&#&%%%%%%%%% %     ",
"          %%%%%%%%%%%%%%%%%%%%%%&+&&&&+#&&+#&&+#%%%%%%%%%%%     ",
"         %%%%%%%%%%%%%%==%%%%%%%#  &#+&&#+&&#+&&%%%%%%%%%       ",
"         %% %%%%%%=%%====%%%%%%    &+#&#&#&&+#&#%%%%%%%%        ",
"             %%%%%%%====%%%%%%    &&&&&+&+#+&&&+%%%%%%%%%       ",
"             %%%%%%======%%%%%     &+#+&+&&&+#+&%%%%%%%%        ",
"            %%%%%%=======%%%%%     &&&#&#&#+&&#&%%%%%%%         ",
"           $$%%%%========#&&&&&   &&&#&&&&+&+#&&%%%%%%          ",
"           $ %%% %======&+& &&    &&+ &&#+#&&&& %%%%%           ",
"                  %%%%%%&+&&          +#&&+&+&   %              ",
"             $    %%%%%%+&&&          &&#+&+#&& %               ",
"                 %%%&#&#&&&           &&+&+&%%%%%%              ",
"                  %%&+&++#&&          &&&+&+%%% %               ",
"                  %#++&&+&&+          +&&&%%%%                  ",
"                  ##&  +++&           ++o&X %                   "
};
