/* XPM */
static char *f7303d338ffd4d45c313885abdb2e5ffohfkGWQEcVal1Cit[] = {
/* columns rows colors chars-per-pixel */
"64 64 4 1 ",
"  c None",
". c #E91E63",
"X c #F54F89",
"o c white",
/* pixels */
"                                                                ",
"                                                                ",
"                                                                ",
"                                                                ",
"                                                                ",
"                                                                ",
"                                                                ",
"                                                                ",
"                                                                ",
"                                                                ",
"                                                                ",
"                                                                ",
"                                                                ",
"                                                                ",
"                                                                ",
"                     ......       .......                       ",
"                     ......       .......                       ",
"                     ......       .......                       ",
"                     ......       .......                       ",
"                ..............  .....oooo.....                  ",
"                ..............  .....oooo.....                  ",
"                ..............  .....oooo.....                  ",
"                ..............  .....oooo.....                  ",
"              ..................................                ",
"              ..................................                ",
"              ..................................                ",
"           .......................................              ",
"           .......................................              ",
"           .......................................              ",
"           .......................................              ",
"         .........ooooooooooooooooooooooooo..........           ",
"         .........ooooooooooooooooooooooooo..........           ",
"         .........ooooooooooooooooooooooooo..........           ",
"         .........ooooooooooooooooooooooooo..........           ",
"       .........oooooooooooooooooooooooooooooo.........         ",
"       .........oooooooooooooooooooooooooooooo.........         ",
"       .........oooooooooooooooooooooooooooooo.........         ",
"       .........oooooooooooooooooooooooooooooo.........         ",
"         ..XXXXXXXXXXXXXXXXXXXXXXXXXXXXXXXXXXXXXXX...           ",
"         ..XXXXXXXXXXXXXXXXXXXXXXXXXXXXXXXXXXXXXXX...           ",
"         ..XXXXXXXXXXXXXXXXXXXXXXXXXXXXXXXXXXXXXXX...           ",
"           ...XXXXXXXXXXXXXXXXXXXXXXXXXXXXXXXXXX..              ",
"           ...XXXXXXXXXXXXXXXXXXXXXXXXXXXXXXXXXX..              ",
"           ...XXXXXXXXXXXXXXXXXXXXXXXXXXXXXXXXXX..              ",
"           ...XXXXXXXXXXXXXXXXXXXXXXXXXXXXXXXXXX..              ",
"              ..XXXXXXXXXooooooooooooXXXXXXXXX..                ",
"              ..XXXXXXXXXooooooooooooXXXXXXXXX..                ",
"              ..XXXXXXXXXooooooooooooXXXXXXXXX..                ",
"              ..XXXXXXXXXooooooooooooXXXXXXXXX..                ",
"                .....XXXXXXXXXXXXXXXXXXXX.....                  ",
"                .....XXXXXXXXXXXXXXXXXXXX.....                  ",
"                .....XXXXXXXXXXXXXXXXXXXX.....                  ",
"                .....XXXXXXXXXXXXXXXXXXXX.....                  ",
"                     ....................                       ",
"                     ....................                       ",
"                     ....................                       ",
"                                                                ",
"                                                                ",
"                                                                ",
"                                                                ",
"                                                                ",
"                                                                ",
"                                                                ",
"                                                                "
};
