/* XPM */
static char *_48422868f1f43e8b2873b9d6d3fa468udoPBjvOR3jHmDGE[] = {
/* columns rows colors chars-per-pixel */
"64 64 11 1 ",
"  c None",
". c #E71D61",
"X c #E71E61",
"o c #E81C62",
"O c #E81D63",
"+ c #E91D63",
"@ c #E81F62",
"# c #E91E63",
"$ c #E91F63",
"% c #F54F89",
"& c white",
/* pixels */
"                   ##                                           ",
"                  X##     # #    #                              ",
"                 X####    ####   #                              ",
"              XXX#######  ##########    #                       ",
"               X######## #####%######   #                       ",
"              ########%#%%###%%%%##########  ###                ",
"             X########%%%%###%%%%%###%###### ###                ",
"            X#########%%%%%%#%%%%%%#%%#%####%##### ##           ",
"           XX########%%%%%%%%%%%%%%%%%%%%##%%###$ $+@@          ",
"          X########%%%%%%%%%%%%%%%%%%%%%%##%%%%#$$+$$@#         ",
"         X#########%%%%%%%%%%%%%%%%%%%%%%%%%%%%%$+$+$$$#        ",
"         #########%%%%%%%%%%%%%%%%%%%%%%%%%%%%%#+$+$$$$@        ",
"       ########%#%%%%%&%%%%%%%%%%%%%%%%%%%%%%###$+$+###         ",
"      X########%%%%%%%&&%%%%%%%%%%%%%%%%%%%%%###+$+$###         ",
"     X#########%%%%%%%&&&%%%%%%%%%%%%%%%%%%%####$+$+###         ",
"  XX##########%%%%%&&&&&&&%%%%%%%%%%%%%%%%%#####+$+$######      ",
"   X#######%#%%%%%&&&&&&&&%%%%%%%%%%%%%%%&&&####$+$+$+$+$+$     ",
"  X########%%%%%%%%&&&&&&&%%%%%%%%%%%%%%%&&&&###+$+$+$+$+$$$    ",
"  #########%%%%%%%&&&&&&&&%%%%%%%%%%%%%%&&&&&###$+$+$+$+$+$     ",
" #########%%%%%&%&&&&&&&%%%%%%%%%%%%%%&&&&&&&&&#+$+$+$+$+$      ",
"#########%%%%%&&&&&&&&&&%%%%%%%%%%%%%%&&&&&&&&&&$+$+$+$+$$      ",
"@######%%%%%%%&&&&&&&&%%%%%%%%%%%%%%%&&&&&&&&&&#+$+$+$+$$$$     ",
"  #####%%%%%%%&&&&&&&%%%%%%%%%%%%%%%&&&&&&&&&&&&$+$+$+$++$$$    ",
"  ##%#%%%%%&%&&&&&&&&%%%%%%%%%%%%%%&&&&&&&&&&&&#+$+$+$+$$+$$    ",
"   #%%%%%%%&&&&&&&&%%%%%%%%%%%%%%%&&&&&&&&&&&&&&+$+$+$+$+$$+    ",
"  ##%%%%%%%&&&&&&&&%%%%%%%%%%%%%%&&&&&&&&&&&&&&&$+$+$+$+$+$$    ",
"   ###%%%%%%%&&&&%%%%%%%%%%%%%%%&&&&&&&&&&&&&&&&&++$+$+$+$+     ",
"@@#####%%%%%%%%%%%%%%%%%%%%%%%&&&&&&&&&&&&&&&&&&##$+$+$+$+$+    ",
" ######%%%%%%%%%%%%%%%%%%%%%%%&&&&&&&&&&&&&&&&&&####+$+$+$+$    ",
" ######%%%%%%%%%%%%%%%%%%%%%%&&&&&&&&&&&&&&&&&&&####$+$+$+$+$$  ",
"@###%#%%%%%%%%%%%%%%%%%%%%%%&&&&&&&&&&&&&&&&&#&#####+$+$+$$$$$  ",
" ##%%%%%%%%%%%%%%%%%%%%%%%&&&&&&&&&&&&&&&&&&########$+$+$+$$    ",
"  %%%%%%%%%%%%%%%%%%%%%%%%&&&&&&&&&&&&&&&&&#################    ",
"  #%%%%%%%%%%%%%%%%%%%%%%&&&&&&&&&&&&&&&&&&&################    ",
"#X##%%%%%%%%%%%%%%%%%%%%&&&&&&&&&&&&&&&&&######################@",
" ###%%%%%%%%%%%%%%%%%%%&&&&&&&&&&&&&&&&&####################### ",
"  ####%%%%%%%%%%%%%%%%&&&&&&&&&&&&&&&&&&###############&####### ",
"  ####%%%%%%%%%%%%%%%&&&&&&&&&&&&&&&&&#&###################### @",
"    #%%%%%%%%%%%%%%&&&&&&&&&&&&&&&&&&################&&&&&&#    ",
"  #####%%%%%%%%%%%&&&&&&&&&&&&&&&&&&##############&&&&&&&&&#    ",
"   ###%%%%%%%%%%%%&&&&&&&&&&&&&&&&&&###############&&&&&&&&#    ",
"    ###%%%%%%%%%%&&&&&&&&&&&&&&&&&#&################&&&&&&####  ",
"    ###%%%%%%%%%&&&&&&&&&&&&&&&&&###################&&&&&#####  ",
"      ###%%%%%%&&&&&&&&&&&&&&&&&&####################&&&####### ",
"       %%%%%%%&&&&&&&&&&&&&&&&&&&###################$+$++$+$#$+o",
"      #%%%%%%#&&&&&&&&&&&&&&&&#&##############  ####$$+$$+$$#X$ ",
"    #####%%#####&&&&&&&&&&&&&##############      ### $+$+$$o    ",
"    @#####%######&&&&&&&&&&&&###############     ### +$+$+$$    ",
"     @##########+$&##&&&&&&&&###$+$+$+$+$+$+$          ###X$    ",
"      @#########$+&+##&#&&&&####+$+$+$+$+$+$$          ####     ",
"       @########+$+$############$+$+$+$+$+$+$$$          #      ",
"        @#######$+$+############+$+$+$+$+$+$+$$$                ",
"         @######+$+$+$+$########$+$+$+$+$+$+$$+                 ",
"          @#####$+$+$+$+########+$+$+$+$+$+$$                   ",
"           @####+$+$+$+$########$+$+$+$+$+$+$$                  ",
"            @###$+$+$+$+########+$+$+$+$+$+$$$$                 ",
"             @##+$+$$++$$+$+$+$+$+$+$+$++$+$+$$+                ",
"              @#$$ $+$$++$+$+$+$+$+$+$+$$+$+$++$$               ",
"               @$$   $$$$+$+$+$+$+$+$+$++$+$+$++OO              ",
"                $$   $$++$+$+$+$+$+$+$+$$+$+$+$+$               ",
"                       $  $$$+$++$+$$+  +$+$$$O$                ",
"                          $$+$+$$+$++$  $$$+$ O                 ",
"                  X$$$  $$$+$$+$+$$$$$$$$$$$o                   ",
"                   X     $   +$+$+$$   $$                       "
};
