/* XPM */
static char *_e52f20a764641f4ab63ffcf843c9552H2RQi9fc6JVMYUUs[] = {
/* columns rows colors chars-per-pixel */
"64 64 8 1 ",
"  c None",
". c #E71E61",
"X c #E71E63",
"o c #E81D63",
"O c #E91E63",
"+ c #E91F63",
"@ c #F54F89",
"# c white",
/* pixels */
"                                  OOO     OOO                   ",
"                             O   OOOOO   OOOOO                  ",
"                             O   OOOOO   OOOOX                  ",
"                      OOO  OOOOOOOOOOOOOOOOOOOOX                ",
"                OO  OOOOOOOOOOOOOOOOOO###OOOOOOOO               ",
"               OOOOOOOOOOOOOOOOOOOOOO#####OOOOOOOO              ",
"               OOOOOOOOOOOOOOOOOOOOOO#####OOOOOOOO              ",
"          OO  OOOOOOOOOOOOOOOOOOOOO#########OOOOO               ",
"        ++OOOOOOOOOOOOOOOOOOOOOOOOOOO#######OOOO                ",
"        ++OOOOOOOOOOOOOOOOOOOOOOOOOOO#######OOOO                ",
"       +OOOOOOOOOOOOOOOOOOOOOOOOOOOOOO####OOOO                  ",
"       OOOOOOOOOOOOOOOOOOOOOOOOOOOOOOOO##OOOOOOO                ",
"        OOOOOOOOOOOOOOOOOOOOOOOOOOOOOOOOOOOOOOOO                ",
"        OOOOOOOOOOOOOOOOOOOOOOOOOOOOOOOOOOOOOOOO                ",
"       OOOOOOOOOOOOOOOOOO##OOOOOOOOOOOOOOOOOOO           OX     ",
"     OOOOO@OOOOOOOO#OOO######OOOOOOOOOOOOOOOO     OO    OOOO    ",
"     OOO@@@@OOOOOO############OOOOOOOOOOOOOOO    OOOO OOOOOOO   ",
"     OOO@@@@OOOOOO############OOOOOOOOOOOOOOO    OOOO OOOOOOX   ",
"       @@@@@@@OO###############OOOOOOOOOOOOOOO  OOOOOOOOOOOOOXO ",
"     OOO@@@@@@@##################OOOOOOOOOOOOOOOOOOOOOOOOOOOOOOO",
"    OOOOOO@@@@@@##################OOOOOOOOOOOOOOOOOOOOOOOOOOOOO ",
"    OOOOOO@@@@@@##################OOOOOOOOOOOOOOOOOOOOOOOOOOOOO ",
"   OOOOO@@@@@@@@@@#################OOOOOOOOOOOOOOOOOOOOOOOOOO   ",
"    OOO@@@@@@@@@@@@##################OOOOOOOOOOOOOOOOOOOOOOO    ",
"    OOO@@@@@@@@@@@@##################OOOOOOOOOOOOOOOOOOOOOOO    ",
"     @@@@@@@@@@@@@@@##################OOOOOOOOOOOOOOOOOOOOOOO   ",
"    OOO@@@@@@@@@@@@@@@#################OOOOOOOOOOOOOOOOOOOOOOOO ",
"   OOOO@@@@@@@@@@@@@@@@##################OOOOOOOOOOOOOOOOOOOOOOO",
"   OOOO@@@@@@@@@@@@@@@@##################OOOOOOOOOOOOOOOOOOOOOOO",
" OOOO@@@@@@@@@@@@@@@@@@@@#################OOOOOOOOOOOOOOOOOOOOOO",
"   O@@@@@@@@@@@@@@@@@@@@@@##################OOOOOOOOOOOOOOOOOOO ",
"   O@@@@@@@@@@@@@@@@@@@@@@@##################OOOOOOOOOOOOOOOO   ",
"   O@@@@@@@@@@@@@@@@@@@@@@@##################OOOOOOOOOOOOOOOO   ",
" OOOO@@@@@@@@@@@@@@@@@@@@@@@@#################OOOOOOOOOOOOOOO   ",
"OOOOOOO@@@@@@@@@@@@@@@@@@@@@@@##################OOOOOOOOOOOOOOO ",
" OOOOOO@@@@@@@@@@@@@@@@@@@@@@@@##################OOOOOOOOOOOO   ",
" OOOOOO@@@@@@@@@@@@@@@@@@@@@@@@##################OOOOOOOOOOOO   ",
"   OO@@@@@@@@@@###@@@@@@@@@@@@@@@#################OOOOOOOOOO    ",
"    @@@@@@@@@@#####@@@@@@@@@@@@@@@################OOOOOOOOOO    ",
"   OO@@@@@@@########@@@@@@@@@@@@@@@##############OOOOOOOOOOO    ",
"   OO@@@@@@@########@@@@@@@@@@@@@@@##############OOOOOOOOOOO    ",
" OOOOOO@@@@@@@########@@@@@@@@@@@@@@@###########OOOOOOOOOOO     ",
"OOOOOOOO@@@@@@@########@@@@@@@@@@@@@@@##########OOOOOOOOO       ",
"OOOOOOOO@@@@@@@########@@@@@@@@@@@@@@@##########OOOOOOOOO       ",
".OOOOOOOOO@@@@@@#########@@@@@@@@@@@@@@##########OOOOOOOO       ",
" .XOOOOOOOO@@@@@@@########@@@@@@@@@@@@@@@#######OOOOOOOOOOO     ",
"   XOOOOOOOO@@@@@@@########@@@@@@@@@@@@@@@####OOOOOOOOOOOOOO    ",
"   XOOOOOOOO@@@@@@@########@@@@@@@@@@@@@@@####OOOOOOOOOOOOOO    ",
"    XOOOOOOOOO@@@@@@#######@@@@@@@@@@@@@@@@@#OOOOOOOOOOOOOO     ",
"     X.OOOOOOOO@@@@@@@####@@@@@@@@@@@@@@@@@@@OOOOOOOOOOOO       ",
"       XOOOOOOOO@@@@@@@##@@@@@@@@@@@@@@@@@@@@@OOOOOOOOOO        ",
"       XOOOOOOOO@@@@@@@##@@@@@@@@@@@@@@@@@@@@@OOOOOOOOOO        ",
"        .XOOOOOOOO@@@@@@@@@@@@@@@@@@@@@@@@@@@@@@OOOOOOOOO       ",
"          XOOOOOOOO@@@@@@@@@@@@@@@@@@@@@@@@@@@OOOOOOOOOOX       ",
"           XOOOOOOOO@@@@@@@@@@@@@@@@@@@@@@OO@OOOOOOOOOXX        ",
"           .OOOOOOOO@@@@@@@@@@@@@@@@@@@@@@OO@OOOOOOOOOXX        ",
"            XXOOOOOOOO@@@@@OO@@@@@@@@@@@@OOO OOOOO  OX          ",
"              XOOOOOOOO@@@OOOO@@@@@OOO@OOO    OOO               ",
"              .OOOOOOOO@@@OOOO@@@@@OOO@OOO    OOO               ",
"               .OOOOOOOOOOOOOOO@@@OOOO OO                       ",
"                XXOOOOO   OOOOOOOOOOO                           ",
"                  .OOO     OOOO   O                             ",
"                  XOOO     OOOO   O                             ",
"                   X         O                                  "
};
