/* XPM */
static char *_4cc9e84141d4dda9a6adaf7357742940emVGRQzEySxujhi[] = {
/* columns rows colors chars-per-pixel */
"64 64 8 1 ",
"  c None",
". c #E71E61",
"X c #E71E63",
"o c #E81D63",
"O c #E91E63",
"+ c #E91F63",
"@ c #F54F89",
"# c white",
/* pixels */
"                   o++     +OO                                  ",
"                  o++++   ++OO+   +                             ",
"                  oOOOO   ++OO+   +                             ",
"                ooOOOOOO+OOOO++++++++  +++                      ",
"               o+++Oooo###oooo++OOOO++OOOOOO  OO                ",
"              oo+++O+o#####o++++OOOO++OOOOOO+OOO+               ",
"              oo++ooo+#####o+oo+OOOOOOOOOOOO++OO+               ",
"               o+o+o#########o++OOOOOOOOOOOOO+OO++  ++          ",
"                ++OO#######OOOOOOOOOOOOOOOOOOOOOOOOOOO++        ",
"                ++OO#######OOOOOOOOOOOOOOOOOOOOOOOOOOO++        ",
"                  OOoo####OOOOOOOOOOOO++OOOOOOOOOOOOOOOO+       ",
"                OOOOooo##oOOOOOOOOOOO+++OOOOOOOOOOOOOOOO+       ",
"                +++OOOOOooo+OOOOOO+++OooOOOOOOOOOOOOOOOO        ",
"                ++OOOOOOoo++OOOOOOooOOooOOOOOOOOOOOOOOOO        ",
"     oo           OOOOOOOO++OOOOOOOoO##oOoo+Ooo+OOOOOO+++       ",
"    o+o+    o+     OOOOOOOO+OOO+OOO######o++#o++OOOOO@O++++     ",
"   o+++OOO ++++    ++OOOOOOOOO++oo############ooOOOO@@@@+++     ",
"   o++OOOO +OO+    O++OOOOOOOOoooo############ooOOOO@@@@OO+     ",
" oo+OOOOOOOOOOOO  ++OOOOOOOOOOOo+###############OO@@@@@@@       ",
"o+++OOOOOOOOOOOO++++OOOOOOOOOOO##################@@@@@@@OO+     ",
" O++OOOOOOOOOOOOOOOOOOOO++++oo##################@@@@@@o+OOOO    ",
" O++OOOOOOOOOOOOOOOOOOOO++++oo##################@@@@@@ooOOO+    ",
"   +OOOOOOOOOOOOOOOOOOOO+oooo#################@@@@@@@@@@OO+++   ",
"    OOOOOOOOOOOOOOOOOOOOo+o##################@@@@@@@@@@@@O++    ",
"    OOOOOOOOOOOOOOOO++OOOOO##################@@@@@@@@@@@@O++    ",
"   +OOOOOOOOOOOOOOOO++OOOO##################@@@@@@@@@@@@@@@     ",
" O++OOOOOOOOOOOOOOOO++ooo#################@@@@@@@@@@@@@@@OOO    ",
"++++OOOOOOOOOOOOOOOOooo##################@@@@@@@@@@@@@@@@OOO+   ",
"++OOOOOOOOOOOOOOOO+++Oo##################@@@@@@@@@@@@@@@@O+++   ",
"OO++OOOOOOOOOOOOOOooOO#################@@@@@@@@@@@@@@@@@@@@++++ ",
" +++OOOOOOOOOOOOOOOo##################@@@@@@@@@@@@@@@@@@@@@@+   ",
"   +OOOOOOOOOOOOOOO##################@@@@@@@@@@@@@@@@@@@@@@@+   ",
"   OOOOOOOOO+++oooo##################@@@@@@@@@@@@@@@@@@@@@@@+   ",
"   +OOOOOOOOO++ooo#################@@@@@@@@@@@@@@@@@@@@@@@@o+++ ",
" +++OOOOOOOOOOoo##################@@@@@@@@@@@@@@@@@@@@@@@oo+++++",
"   OOOOOOOOOOOo##################@@@@@@@@@@@@@@@@@@@@@@@@o+oO++ ",
"   +OOOOOOOO+++##################@@@@@@@@@@@@@@@@@@@@@@@@O++O++ ",
"    OOOOOOOO++#################@@@@@@@@@@@@@@@###@@@@@@@@@@+O   ",
"    OOOOOOOOoo################@@@@@@@@@@@@@@@#####@@@@@@@@@@    ",
"    OOOOOOOOooo##############@@@@@@@@@@@@@@@########@@@@@@@++   ",
"    ++++OOOOOOO##############@@@@@@@@@@@@@@@########@@@@@@@OO   ",
"     +O+OOOOOOOO###########@@@@@@@@@@@@@@@########@@@@@@@OOOOO+ ",
"       +OOOOOOOO##########@@@@@@@@@@@@@@@########@@@@@@@OOOOOO++",
"       +OOOOOOOO##########@@@@@@@@@@@@@@@########@@@@@@@OOOOOO++",
"       +OOOO++o##########@@@@@@@@@@@@@@#########@@@@@@OO++o+Oo+o",
"     +++OOOO+oo+#######@@@@@@@@@@@@@@@########@@@@@@@OOO+++oOoo ",
"    OO++OOO+++++oo####@@@@@@@@@@@@@@@########@@@@@@@OOOO++o+o   ",
"    OOOOOOO+++o+oo####@@@@@@@@@@@@@@@########@@@@@@@OOOOO++oo   ",
"     +++++OOOOOOOOO#@@@@@@@@@@@@@@@@@#######@@@@@@oo+OOOOOoo    ",
"       +O+OOOOOOOOO@@@@@@@@@@@@@@@@@@@####@@@@@@@ooo++OOO.o     ",
"        OOOOOOOOOO@@@@@@@@@@@@@@@@@@@@@##@@@@@@@OO++++o+.       ",
"        OOOOOOOOOO@@@@@@@@@@@@@@@@@@@@@##@@@@@@@O++++++o.       ",
"       oOOOOOOOO@@@@@@@@@@@@@@@@@@@@@@@@@@@@@@OOOOOOOOoo        ",
"       oOOOOOOOOOO@@@@@@@@@@@@@@@@@@@@@@@@@@@OOOOOOOO.          ",
"        ooOOOOOOOOO@OO@@@@@@@@@@@@@@@@@@@@@@OOOOOOOO.           ",
"        ooOOOOOOOOO@OO@@@@@@@@@@@@@@@@@@@@@@OOOOOOOO.           ",
"          oo  o++OO +++@@@@@@@@@@@@++@@@@@+OOOOO+oo+            ",
"               o++    ++O@OO+@@@@@+++O@@@++OOOOOo+              ",
"               +++    ++O@OO+@@@@@ooOO@@@++oOOOO+.              ",
"                       ++ OOO+@@@oooOOOO++++OOOOo               ",
"                           +++++OOO+O+   o+oo+..                ",
"                             +   OO+O     o++.                  ",
"                             +   ++++     +oo+                  ",
"                                  +         .                   "
};
