/* XPM */
static char *_c0fbfcb9d354ffcf48d3dc8ea1d53009VL0mL9XqQxpUcGs[] = {
/* columns rows colors chars-per-pixel */
"64 64 3 1 ",
"  c None",
". c black",
"X c #ED1C24",
/* pixels */
"                                                                ",
"                      ....................                      ",
"                    ........................                    ",
"                  ............................                  ",
"                ................................                ",
"               ..................................               ",
"               ..........XXX.......XXX...........               ",
"               ..........XXX.......XXX...........               ",
"               ..................................               ",
"               ..................................               ",
"                ................................                ",
"                ...........X.......X............                ",
"                  .........XXX...XXX...........                 ",
"                  ...........XXXXX............                  ",
"                      ....................                      ",
"                        ................                        ",
"                          ............                          ",
"                          ............                          ",
"       ........   ............................   ........       ",
"     ......................................................     ",
"    ........................................................    ",
"    ........................................................    ",
"    ........................................................    ",
"     ......................................................     ",
"     ......................................................     ",
"     ......................................................     ",
"     .......... ................................ ..........     ",
"     ..........   ............................   ..........     ",
"     ..........     ........................     ..........     ",
"     ..........     ........................     ..........     ",
"    ...........     ........................     ...........    ",
"    ............    ........................    ............    ",
"    ............    ........................    ............    ",
"    ............    ........................    ............    ",
"    ............    ........................    ............    ",
"    ............    ........................    ............    ",
"     ..........   ............................   ..........     ",
"     ..........   ...........      ...........   ..........     ",
"    ............  .............  .............  ............    ",
"  .............................  .............................  ",
"  .............................  .............................  ",
"  .............................  .............................  ",
"  .............................  .............................  ",
"  .............................  .............................  ",
"    ...........................  ...........................    ",
"     ..........................  ..........................     ",
"                  ...........      ...........                  ",
"                .............      .............                ",
"                ...............  ...............                ",
"                ...............  ...............                ",
"                ...............  ...............                ",
"                ...............  ...............                ",
"                ...............  ...............                ",
"                .............      .............                ",
"                .............      .............                ",
"                  ...........      ...........                  ",
"                  .........          .........                  ",
"                  .........          .........                  ",
"                  .........          .........                  ",
"                ...........          ...........                ",
"       ......................      ......................       ",
"     ........................      ........................     ",
"     ........................      ........................     ",
"                                                                "
};
