/* XPM */
static char *_42c60c8776b4194c4d0ade6705c7a89Zy0XffnImGE26St1[] = {
/* columns rows colors chars-per-pixel */
"64 64 244 2 ",
"   c None",
".  c #050201",
"X  c #0B0301",
"o  c #090905",
"O  c #150402",
"+  c #1A0201",
"@  c #180C07",
"#  c #1A1305",
"$  c #1C1615",
"%  c #140F13",
"&  c #2C0B01",
"*  c #270702",
"=  c #340D00",
"-  c #3B0B02",
";  c #330401",
":  c #271802",
">  c #3C1303",
",  c #331707",
"<  c #351D16",
"1  c #241414",
"2  c #262402",
"3  c #372807",
"4  c #353408",
"5  c #2D261B",
"6  c #3A2617",
"7  c #3B3615",
"8  c #2A321B",
"9  c #2D2824",
"0  c #362A24",
"q  c #363C24",
"w  c #3C3636",
"e  c #362C33",
"r  c #1A200A",
"t  c #431B03",
"y  c #451806",
"u  c #400E01",
"i  c #47260A",
"p  c #5A2B08",
"a  c #432D13",
"s  c #4B2D1A",
"d  c #492916",
"f  c #562E18",
"g  c #493517",
"h  c #57351A",
"j  c #4B350C",
"k  c #77370B",
"l  c #67391A",
"z  c #7A3A19",
"x  c #692D0C",
"c  c #4B2D25",
"v  c #4A3323",
"b  c #4D3B2B",
"n  c #473629",
"m  c #553A27",
"M  c #473935",
"N  c #543C33",
"B  c #6F3B27",
"V  c #374719",
"C  c #3A451B",
"Z  c #314C1B",
"A  c #39481C",
"S  c #354714",
"D  c #30480E",
"F  c #3A4724",
"G  c #3E5221",
"H  c #42451B",
"J  c #524514",
"K  c #7A451C",
"L  c #664319",
"P  c #464A25",
"I  c #584528",
"U  c #485726",
"Y  c #4C4333",
"T  c #494838",
"R  c #534335",
"E  c #5B4D3C",
"W  c #594836",
"Q  c #5C513D",
"!  c #4D5634",
"~  c #69452C",
"^  c #674A2A",
"/  c #754729",
"(  c #69522D",
")  c #6A4D32",
"_  c #624C3D",
"`  c #694837",
"'  c #744B35",
"]  c #6D543B",
"[  c #67553B",
"{  c #795636",
"}  c #7C572F",
"|  c #7B683B",
" . c #543F46",
".. c #494445",
"X. c #564A48",
"o. c #5B534B",
"O. c #5B5546",
"+. c #555352",
"@. c #5E5C5C",
"#. c #5C5657",
"$. c #5C4D50",
"%. c #675648",
"&. c #735D43",
"*. c #775B48",
"=. c #615353",
"-. c #655A58",
";. c #745A57",
":. c #654E4A",
">. c #6B6245",
",. c #69624C",
"<. c #766649",
"1. c #7C654A",
"2. c #69655A",
"3. c #736A53",
"4. c #7C6B54",
"5. c #786559",
"6. c #757157",
"7. c #5B5A62",
"8. c #635F60",
"9. c #646262",
"0. c #65646B",
"q. c #6C6B6B",
"w. c #6B6769",
"e. c #776966",
"r. c #7E746B",
"t. c #6C6B73",
"y. c #786C72",
"u. c #737271",
"i. c #74747B",
"p. c #7D7D7C",
"a. c #797779",
"s. c #6F7279",
"d. c #5D6069",
"f. c #813D11",
"g. c #845938",
"h. c #935A35",
"j. c #855029",
"k. c #976638",
"l. c #8D653B",
"z. c #AD6E2A",
"x. c #AE712D",
"c. c #A66738",
"v. c #B6733D",
"b. c #B26D3B",
"n. c #875C44",
"m. c #925D4C",
"M. c #836D44",
"N. c #896748",
"B. c #956848",
"V. c #89744B",
"C. c #97764D",
"Z. c #866956",
"A. c #926C52",
"S. c #8E7453",
"D. c #8C7956",
"F. c #927E54",
"G. c #947C5A",
"H. c #987A5B",
"J. c #A46C47",
"K. c #A77748",
"L. c #B77948",
"P. c #A87956",
"I. c #B87B57",
"U. c #A96F57",
"Y. c #887569",
"T. c #987A63",
"R. c #857A79",
"E. c #906C63",
"W. c #A57963",
"Q. c #B77E64",
"!. c #C27F4C",
"~. c #978158",
"^. c #A3845B",
"/. c #B38554",
"(. c #B8855A",
"). c #8A837D",
"_. c #968373",
"`. c #9B8563",
"'. c #B98769",
"]. c #BB9569",
"[. c #B38D6E",
"{. c #C58858",
"}. c #DC9C5D",
"|. c #D6955D",
" X c #CC8B53",
".X c #E19B5E",
"XX c #DEA25F",
"oX c #E1A05F",
"OX c #C78968",
"+X c #CA9568",
"@X c #DD9D63",
"#X c #DC9D6B",
"$X c #D59967",
"%X c #CB9A72",
"&X c #C79977",
"*X c #D49D72",
"=X c #D79D78",
"-X c #CD8E6E",
";X c #E39D64",
":X c #E59E6C",
">X c #E99E65",
",X c #E29C7B",
"<X c #DCA265",
"1X c #D5A26B",
"2X c #DCA26C",
"3X c #D9A468",
"4X c #CCA377",
"5X c #D4A675",
"6X c #DDA474",
"7X c #DDAA74",
"8X c #D3A57D",
"9X c #DDA67B",
"0X c #DDAC7C",
"qX c #D5A977",
"wX c #D4A876",
"eX c #E3A265",
"rX c #E3A36C",
"tX c #E9A36B",
"yX c #E6A96D",
"uX c #E3A472",
"iX c #E2AB74",
"pX c #E3AB7C",
"aX c #E8A576",
"sX c #ECB077",
"dX c #7A7D83",
"fX c #757781",
"gX c #827F86",
"hX c #838283",
"jX c #8A8683",
"kX c #8C8C8C",
"lX c #85878B",
"zX c #948B87",
"xX c #97918C",
"cX c #969592",
"vX c #97989A",
"bX c #908F95",
"nX c #A8968D",
"mX c #9F9FA7",
"MX c #AAA7A5",
"NX c #B5AFAC",
"BX c #DCAC84",
"VX c #D8AB89",
"CX c #DFB994",
"ZX c #E8AF86",
/* pixels */
"                                                                                                                                ",
"                                                    kXMXMXvXxXzXjX).).).zXkXu.                                                  ",
"                                                kXMX4.h j.K.(.{.%X+X+X/.K.L I xXp.                                              ",
"                                              vXY.3 (.5XaXaXsXtX:XaX@XyXyXiX+X~ ;.xX                                            ",
"                                            jX:.g.BXaXaX:X;X:X$X3XXXeXXX}.@XrX0XC.^ ).                                          ",
"                                            5.B.ZXuX;X:X:X:X:X:X:X:X:X:XrXrXrX@XpXg._.                                          ",
"                                          jXm 8X<X}.:X:X:X:X:X:X:X:X:X:X:X:X:XrXiX%Xm u.                                        ",
"                                          %.+X7XeXeX:X:X:X:X:X:X:X:X:X:X:X:X:X:XuX8X{ jX                                        ",
"                                          ( 0XrX:X:X:X:X:X:X:X:X:X:X:X:X:X:X:X:X:XBXn.xX                                        ",
"                                        r.V.:X:X:X:X:X:X:X:X:X:X:X:X:X:X:X:X:X:X:X:XA.nX                                        ",
"                                      @.j (.:X:X:X:X:X:X:X:X:X:X:X:X:X:X:X:X:X:X:X:X(.L jX                                      ",
"                                      5.'.:X:X:X:X:X:X:X:X:X:X:X:X:X:X:X:X:X:X:X:X:X:XA._.                                      ",
"                                    u.f #X:X:X:X:X:X:X:X:X:X:X:X:X:X:X:X:X:X:X:X:X:X:X'.] bX                                    ",
"                                  a.v i :X:X:X:X:X:X:X:X:X:X:X:X:X:X:X:X:X:X:X:X:X:X:X(.> E.lX                                  ",
"                                0.< &XC.:X:X:X:X:X:XtX:X:X:X:X:X:X:X:X:X:X:X:X:X:X:X:X:X#XP.%.R.                                ",
"                              2.1 T.CX-X:X:X:X:X:X:X:X:X:X:X:X:X:X:X:X:X:X:X:X:X:X:X:X:X:X:XZ.0 hX                              ",
"                          8.+.. Y 4 ! ~.eX;X>X:X:X:X:X:X:X:X:X:X:X:X:X:X:X:X:X:X:X:X:X2X/.U G r % p.                            ",
"                        q.o 8 T F Z Z Z U ^.:X;X:X:X:X:X:X:X:X:X:X:X:X:X:X:X:X:X:X:X:X/.G Z Z Z Y . 8 p.                        ",
"                  q.r.X . ! F F Z Z Z Z Z Z | :X>X:X:XrX:X:X:X:X:X:X:X:X:X:X:X:X:X/.U Z Z Z Z Z F T q o o.u.                    ",
"              u._.g h , Q q F Z Z Z Z Z Z Z Z G ~.:X:XrX:X:X:X:X:X:X:X:X:X:X:X/.U Z Z Z Z Z Z Z Z Z F T 5 . *.zXu.              ",
"            zXy } &XVX1.O Y C V Z Z Z Z Z Z Z Z Z Z Z Z Z Z Z Z Z Z Z Z Z Z Z Z Z Z Z Z Z Z Z Z Z Z F F Y 6 m f E.cX            ",
"        w.Y.> &XZX*X9X&X( : H V S V V Z Z Z Z Z Z Z Z Z Z Z Z Z Z Z Z Z Z Z Z Z Z Z Z Z Z Z Z Z Z V F P O M.VXBXA.& nX          ",
"        m { 8XpX#X2X2X9X4Xj 4 P S S Z Z Z Z Z Z Z Z Z Z Z Z Z Z Z Z Z Z Z Z Z Z Z Z Z Z V Z Z V V V C O H.BX6X*X9X'.+ zX        ",
"      R B.BXiX}.;XtX@X1XwX].3 7 F C V V V V V Z Z Z Z Z Z Z Z Z Z Z Z Z V V V V V V V V V Z 7 S V V # l.8X2X#X2X2XBX].* ).      ",
"    -.~ BX2X@XtXeX;X@X;X1XqX~.O H V V V V V V V V V V V V V V V A Z V V V V V V V V V V V C S S A 4 I 8X6XrXrX<X<X3XBX'.d       ",
"    m P.iX}.eX.XtX;X;XrX3X7X4XJ 4 A V V V V V V V V V V V V V V V V V V V V V V V V V A V V V V H # ].qX:X:X;XeX}.3X2X=X> e.    ",
"    = (.rX;X;X:X:X:XtX;XXX3XwX| 2 F V V V V V V V V V V V V V V V V V V V V V V V V Z A V V V V 2 ( 8X#XtX;X:XrXyX<X@X#Xh.~     ",
"    , /.eXtX@XtX:X:XeX}.<X<XwX} 2 7 V V V V V V V V V V V V V V V V V V V V V V V V V S V V V V # ~.5X:X;X>X:X#X$X3XtX$XU.t     ",
"    d K.@X;XeX:X:X:X;XeXeX1X4XJ 4 S V V V V V V V V V V V V V V V V V V V V V V V V V V V A A H # ~.0XyX;X>XrX#XrX;XtX XB.=     ",
"    5.j.$XeXyX.X:X:X>X;X<X0X].: J S V V V V V V V V V V V V V V V V V V V V V V A S V V V A S H # ].wX3XrX;X:XuX@X;X>X!.B.>     ",
"    R.f (.:XeXXX.X;XeX>X<X4X| 2 S C C V V V V V V V V V V V V V V V V V V V V V V V V V V V S H # D.qX3X$XyX#XrXeXtX XL.l 5.    ",
"    R.y K +X<XoXeXeX.X>X2XK.3 g C V C S V V V V V V V V V V V V V V V V V V V V V V V V V V S A 2 ( +X3X<XeX#XeX;X;X!.J.; -.    ",
"    E.x L.c.$X<XoXoXeX.Xb.p j P A G S V V V V V V V V V V V V V V V V V V V V V V V V V V V V A 7 j k. X@XeXeXrX}.!.c.h.u 5.    ",
"    ; U.L.!.$X2X<X.X.XL.L.B.2 C F Z D D V V V S V V V V V V V V V V V V V V V V V V V V V V V V H i k.v. XeXeXeXeX Xc.L.U.*     ",
"  -.p I.L.$XuX2XrXeXoXoXyX4XJ 4 C Z V S V V A A V V V V V V V V V V V V V V V V V V V V V V V V 2 l.7XXX;X;X;X#XeXeX Xv.I.p #.  ",
"  m B.L.{.:XrXrX2X:X|.eXXXwX| # V V V Z S V S A V V V V V V S V V V V V V V V V V V V V V V V V o ~.7XXXeXrX:X:XtXeX.Xv.L.J.E   ",
"  > I.c. XrX}.<X@X6XrX#X<X9XN.O C V V V S S S A V V V V V V V V V V V V V V V V V V V V V V V V : [.pX:X#XuX#X:X:X;X>Xv.c.J.c   ",
"  - OXz I.uX@XeX<X2X6X*XpX&XN.* 3 V V V V V A S V V V V V V V V V V V V V V V V V V V V V V V V = [.=X,X=XuX6X1X#XyXtXb.f.I.v   ",
"  u Q.f.U.uXiXeXuX=X=XVX&X'.] + 6 V V V V V V V V V V V V V Z S V V V V V V V V V V V V V V C V : H.%X=X=X*XqX7X7X3XaXJ.k I.v   ",
"  u Q.z U.ZX%XP.l.} ~ N ~ B N Y.g 4 V V V V V V V V V V V C C C V V V V V V A V V V V V V V C P Z.~ ' / / ' g.B.^.4XBXU.x I.N   ",
"  < Q.g.{ Z.m [ E R X.%.W _ c :.f l.K.z.x.z.z.z.z.z.z.z.z.z.z.z.z.z.z.z.z.z.z.z.z.z.z.z.z.z.h.N.T.O :.%.;.:.` %.) h W.n.B Q.N   ",
"  < T.A.+ %.R.5.$.e ..e n c M d u g.x.z.z.z.x.z.z.z.z.z.z.z.z.z.z.z.z.z.z.z.z.z.z.z.z.z.z.z.z.- 6 N c n M M M $.r.Y.c * m.W.N   ",
"  $.*.&.;.gX$.9  .gX0.fXu.w.e.e.N y c.z.z.z.z.z.z.z.z.z.z.z.z.z.z.z.z.z.z.z.z.z.z.z.z.z.z.z.z.< =.;.-.w.0.0.t.X.9 2.Y.s g.W.R   ",
"  8.+ N gX=.0 a.vXvXgXy.R.Y.5._ d d K.z.z.z.z.z.z.z.z.z.z.z.z.z.z.z.z.z.z.z.z.z.z.z.z.z.z.z.z.M e.r.a.gXfXdXmXlX2.$ e.Z.y A.o.  ",
"    M ;.Z.e 8.vXbXvXgXR.;.c & ] l.> B./.z.z.z.z.z.z.z.z.z.z.z.x.z.z.z.z.z.z.z.z.z.z.z.z.z.z.K s 6 0 =.w.t.lXvXvXvX7...;.B <     ",
"    =. . .e gXbXlXgXy.:.* n.&X8X8X&X/ n.{ &.<.<.<.<.>.&.<.<.<.<.<.1.<.<.<.<.<.<.<.<.<.1.F.p P.&X[.N.6 o.0.s.gXbXbXfX% X. .M     ",
"    #.0 M +.a.i.gXt.$., m.VX0X5X1XBX[.- &.<.<.<.<.<.<.<.<.<.<.<.<.<.<.<.<.<.<.<.<.<.<.<.<.%XZX6XuXBXW.6 X.7.y.hXdXdX7.e + +.    ",
"    w.. X.9.i.i.fXw.n m &X*X1XiX7X5XJ.; &.<.<.<.<.<.<.<.<.<.<.1.<.<.<.<.<.<.<.<.<.<.<.<.) -X=XtX=X9XVXH.* :.8.i.s.dX7...O       ",
"      9.9 9.i.fX0.=.& H.pX$Xk.L.(.K.p ' 4.3.2.,.[ | <.<.<.<.Q T T Y 0 0 R 0 P >.6.>.3.4.> h.I.{.L.c.-X8X~ m $.w.dXfXw.w -.      ",
"      R.o +.d.t.#.c l %X$X2X{.K k p J { 4.6.6.2.,.! g P 6 T             @ :.%.6.>.4.3.5.) y p x j.(.=XpX'.= :.@.0.0.@.X w.      ",
"        cX. 7.+.o., C.7XiX3XpXwXP.p ^ 4.3.Q ,.6.3.W T O.9               8.O =.6.,.! ,.4.Z.i g.(.0X7XuX7X%X( v -.#.0.% y.        ",
"        u.R.o -.R t OX#X{.|.$X'.C.d m %.[ Y O.Q Y R M % 9.                w.. O.! Y E O.~ t N.(.%X2X X{.5XC.2 O.8.w $ i.        ",
"          vX..M :.f -XaXb.k c.h.f d N m b b b n b 0 0 9.                    q.. R ..N b W f d l.k.h.f.!.,XP.i O.#.. kX          ",
"            NX@ y ' !.,XaXI.x f = d s s a s v n , X.                          w.X n 6 6 i h h i / j.-XZX=XI.~ N . p.            ",
"              NX< * u m.Q.Q.W.B &.T.S.S.G.H.D.*.Y #.                            # E Z.~.M.~.~.{ / I.OXOXI.n.+ 0 u.              ",
"              u.MXnXnX:.- h s d N.S.S.S.V.S.N._ O #.                            O %.<.<.M.M.M.M.l l f y d 5.t.                  ",
"                  R.kXcXnXE m I a , j ( ) I a 5 w.                              @.< c v i i i a g & X.                          ",
"                          a.3.3 L ( ( ( ^ ] <.X R.                                1 *.&.~ ] <.%.] 3 X.                          ",
"                          R &.F.F.~.~.~.~.D.>.o p.                                < Z.D.G.~.`.G.~.~.] 5                         ",
"                        9 I S.S.V.F.V.V.V.<.Y # p.                                1 1.V.D.V.V.V.~.V.G.E 5                       ",
"                        X.N < s s a 7 6 6 P %.vX                                  ).M R Y W W O.! Q %.:.M                       ",
"                                                                                                                                ",
"                                                                                                                                ",
"                                                                                                                                "
};
