/* XPM */
static char *_ba5acd8be3042c5923e305d85eceb70ckaoZWfcG6iy7cdM[] = {
/* columns rows colors chars-per-pixel */
"64 64 20 1 ",
"  c None",
". c black",
"X c #090300",
"o c #180A01",
"O c #2D1304",
"+ c #351606",
"@ c #311F1C",
"# c gray13",
"$ c #3E2723",
"% c #3E2924",
"& c #4E342E",
"* c gray26",
"= c #4CAF50",
"- c #CDDC39",
"; c #8BC34A",
": c #0D47A1",
"> c #1565C0",
", c #FFCD94",
"< c #FFDBAC",
"1 c #FFE0BD",
/* pixels */
"                                               ooooooo          ",
"                                               ooooooo          ",
"                                               ooooooo          ",
"                 ooooooooooooooooooooooooooooooOOOOOOOooo       ",
"                 ooooooooooooooooooooooooooooooOOOOOOOooo       ",
"          ooooooooooOOOOOOOOOOOOOO+++OOOOOOOOOOOOOOOOOooo       ",
"          ooooooooooOOOOOOOOOOOOOO+++OOOOOOOOOOOOOOOOOooo       ",
"          ooooooooooOOOOOOOOOOOOOO+++OOOOOOOOOOOOOOOOOooo       ",
"       oooOOOOOOOOOOOOOOOOOOOOOOOOOOOOOO+++++++++++++++++oooo   ",
"       oooOOOOOOOOOOOOOOOOOOOOOOOOOOOOOO+++++++++++++++++oooo   ",
"          oooOOOOOOOOOOOOOO+++ooooooooooooooooooooo++++++oooo   ",
"          oooOOOOOOOOOOOOOO+++ooooooooooooooooooooo++++++oooo   ",
"          oooOOOOOOOOOOOOOO+++ooooooooooooooooooooo++++++oooo   ",
"          oooOOOOOOO++++++++++oooo,,,,,,,,,,,,,,,,,oooooo       ",
"          oooOOOOOOO++++++++++oooo,,,,,,,,,,,,,,,,,oooooo       ",
"          oooOOOOOOOoooooooooo<<<<<<<<<<<<<<1111111,,,ooo       ",
"          oooOOOOOOOoooooooooo<<<<<<<<<<<<<<1111111,,,ooo       ",
"          oooOOOOOOOoooooooooo<<<<<<<<<<<<<<1111111,,,ooo       ",
"          oooOOOOooo,,,,<<<<<<<<<<<<<<<<11111111111,,,          ",
"          oooOOOOooo,,,,<<<<<<<<<<<<<<<<11111111111,,,          ",
"          oooOOOOooo,,,,<<<XXX<<<<<<<<<<<<<<XXX1111,,,          ",
"          oooOOOOooo,,,,<<<XXX<<<<<<<<<<<<<<XXX1111,,,          ",
"          oooOOOOooo,,,,<<<XXX<<<<<<<<<<<<<<XXX1111,,,          ",
"          ooooooo,,,,,,,<<<XXX<<<<<<<<<<1111XXX1111,,,          ",
"          ooooooo,,,,,,,<<<XXX<<<<<<<<<<1111XXX1111,,,          ",
"          ooooooo,,,,,,,<<<XXX<<<<<<<<<<1111XXX1111,,,          ",
"          =======<<<<<<<<<<<<<<<<<<<<<<<11111111111,,,          ",
"          =======<<<<<<<<<<<<<<<<<<<<<<<11111111111,,,          ",
"          ===;;;;===<<<<<<<<<<<<<<<<<1111111111,,,,             ",
"          ===;;;;===<<<<<<<<<<<<<<<<<1111111111,,,,             ",
"          ===;;;;===<<<<<<<<<<<<<<<<<1111111111,,,,             ",
"             ====;;;===========================                 ",
"             ====;;;===========================                 ",
"             ====;;;;;;;;;;;;;;;;;;;;----------====             ",
"             ====;;;;;;;;;;;;;;;;;;;;----------====             ",
"             ====;;;;;;;;;;;;;;;;;;;;----------====             ",
"             ====;;;;;;;######;;;;;;;*******---====             ",
"             ====;;;;;;;######;;;;;;;*******---====             ",
"             ====;;;;;;;######;;;;;;;###****---====             ",
"             ====;;;;;;;######;;;;;;;###****---====             ",
"             ====;;;;;;;######;;;;;;;###****---====             ",
"             ====;;;;;;;;;;;;;;;;;;;;----------====             ",
"             ====;;;;;;;;;;;;;;;;;;;;----------====             ",
"             ====;;;;;;;;;;;;;;;;;;;;----------====             ",
"             ====;;;;;;;;;;#############****---====             ",
"             ====;;;;;;;;;;#############****---====             ",
"             ====;;;;;;;;;;;;;;;;;;;;----------====             ",
"             ====;;;;;;;;;;;;;;;;;;;;----------====             ",
"             ====;;;;;;;;;;;;;;;;;;;;----------====             ",
"             ::::::::::::::::::::::::::::::::::::::             ",
"             ::::::::::::::::::::::::::::::::::::::             ",
"       ......:::::::>>>>>>>>>>>>>>>>>>>>>>>>>>>>>>>......       ",
"       ......:::::::>>>>>>>>>>>>>>>>>>>>>>>>>>>>>>>......       ",
"       ......:::::::>>>>>>>>>>>>>>>>>>>>>>>>>>>>>>>......       ",
"   .......&&&&&&&&&&&&&&%%%..........%%%&&&&&&&&&&&&&&.......   ",
"   .......&&&&&&&&&&&&&&%%%..........%%%&&&&&&&&&&&&&&.......   ",
"..........$$$$$$$$$$$$$$@@@..........@@@$$$$$$$$$$$$$$..........",
"..........$$$$$$$$$$$$$$@@@..........@@@$$$$$$$$$$$$$$..........",
"..........$$$$$$$$$$$$$$@@@..........@@@$$$$$$$$$$$$$$..........",
"   ..........................................................   ",
"   ..........................................................   ",
"          ............................................          ",
"          ............................................          ",
"          ............................................          "
};
