/* XPM */
static char *cf62829ca56a41d2cb11b007c73cdbf6rFYNY5Se1Q1JTk83[] = {
/* columns rows colors chars-per-pixel */
"64 64 20 1 ",
"  c None",
". c black",
"X c #090300",
"o c #180A01",
"O c #2D1304",
"+ c #351606",
"@ c #311F1C",
"# c gray13",
"$ c #3E2723",
"% c #3E2924",
"& c #4E342E",
"* c gray26",
"= c #4CAF50",
"- c #CDDC39",
"; c #8BC34A",
": c #0D47A1",
"> c #1565C0",
", c #FFCD94",
"< c #FFDBAC",
"1 c #FFE0BD",
/* pixels */
"          ooooooo                                               ",
"          ooooooo                                               ",
"          ooooooo                                               ",
"       oooOOOOOOOoooooooooooooooooooooooooooooo                 ",
"       oooOOOOOOOoooooooooooooooooooooooooooooo                 ",
"       oooOOOOOOOOOOOOOOOOO+++OOOOOOOOOOOOOOoooooooooo          ",
"       oooOOOOOOOOOOOOOOOOO+++OOOOOOOOOOOOOOoooooooooo          ",
"       oooOOOOOOOOOOOOOOOOO+++OOOOOOOOOOOOOOoooooooooo          ",
"   oooo+++++++++++++++++OOOOOOOOOOOOOOOOOOOOOOOOOOOOOOooo       ",
"   oooo+++++++++++++++++OOOOOOOOOOOOOOOOOOOOOOOOOOOOOOooo       ",
"   oooo++++++ooooooooooooooooooooo+++OOOOOOOOOOOOOOooo          ",
"   oooo++++++ooooooooooooooooooooo+++OOOOOOOOOOOOOOooo          ",
"   oooo++++++ooooooooooooooooooooo+++OOOOOOOOOOOOOOooo          ",
"       oooooo,,,,,,,,,,,,,,,,,oooo++++++++++OOOOOOOooo          ",
"       oooooo,,,,,,,,,,,,,,,,,oooo++++++++++OOOOOOOooo          ",
"       ooo,,,1111111<<<<<<<<<<<<<<ooooooooooOOOOOOOooo          ",
"       ooo,,,1111111<<<<<<<<<<<<<<ooooooooooOOOOOOOooo          ",
"       ooo,,,1111111<<<<<<<<<<<<<<ooooooooooOOOOOOOooo          ",
"          ,,,11111111111<<<<<<<<<<<<<<<<,,,,oooOOOOooo          ",
"          ,,,11111111111<<<<<<<<<<<<<<<<,,,,oooOOOOooo          ",
"          ,,,1111XXX<<<<<<<<<<<<<<XXX<<<,,,,oooOOOOooo          ",
"          ,,,1111XXX<<<<<<<<<<<<<<XXX<<<,,,,oooOOOOooo          ",
"          ,,,1111XXX<<<<<<<<<<<<<<XXX<<<,,,,oooOOOOooo          ",
"          ,,,1111XXX1111<<<<<<<<<<XXX<<<,,,,,,,ooooooo          ",
"          ,,,1111XXX1111<<<<<<<<<<XXX<<<,,,,,,,ooooooo          ",
"          ,,,1111XXX1111<<<<<<<<<<XXX<<<,,,,,,,ooooooo          ",
"          ,,,11111111111<<<<<<<<<<<<<<<<<<<<<<<=======          ",
"          ,,,11111111111<<<<<<<<<<<<<<<<<<<<<<<=======          ",
"             ,,,,1111111111<<<<<<<<<<<<<<<<<===;;;;===          ",
"             ,,,,1111111111<<<<<<<<<<<<<<<<<===;;;;===          ",
"             ,,,,1111111111<<<<<<<<<<<<<<<<<===;;;;===          ",
"                 ===========================;;;====             ",
"                 ===========================;;;====             ",
"             ====----------;;;;;;;;;;;;;;;;;;;;====             ",
"             ====----------;;;;;;;;;;;;;;;;;;;;====             ",
"             ====----------;;;;;;;;;;;;;;;;;;;;====             ",
"             ====---*******;;;;;;;######;;;;;;;====             ",
"             ====---*******;;;;;;;######;;;;;;;====             ",
"             ====---****###;;;;;;;######;;;;;;;====             ",
"             ====---****###;;;;;;;######;;;;;;;====             ",
"             ====---****###;;;;;;;######;;;;;;;====             ",
"             ====----------;;;;;;;;;;;;;;;;;;;;====             ",
"             ====----------;;;;;;;;;;;;;;;;;;;;====             ",
"             ====----------;;;;;;;;;;;;;;;;;;;;====             ",
"             ====---****#############;;;;;;;;;;====             ",
"             ====---****#############;;;;;;;;;;====             ",
"             ====----------;;;;;;;;;;;;;;;;;;;;====             ",
"             ====----------;;;;;;;;;;;;;;;;;;;;====             ",
"             ====----------;;;;;;;;;;;;;;;;;;;;====             ",
"             ::::::::::::::::::::::::::::::::::::::             ",
"             ::::::::::::::::::::::::::::::::::::::             ",
"       ......>>>>>>>>>>>>>>>>>>>>>>>>>>>>>>>:::::::......       ",
"       ......>>>>>>>>>>>>>>>>>>>>>>>>>>>>>>>:::::::......       ",
"       ......>>>>>>>>>>>>>>>>>>>>>>>>>>>>>>>:::::::......       ",
"   .......&&&&&&&&&&&&&&%%%..........%%%&&&&&&&&&&&&&&.......   ",
"   .......&&&&&&&&&&&&&&%%%..........%%%&&&&&&&&&&&&&&.......   ",
"..........$$$$$$$$$$$$$$@@@..........@@@$$$$$$$$$$$$$$..........",
"..........$$$$$$$$$$$$$$@@@..........@@@$$$$$$$$$$$$$$..........",
"..........$$$$$$$$$$$$$$@@@..........@@@$$$$$$$$$$$$$$..........",
"   ..........................................................   ",
"   ..........................................................   ",
"          ............................................          ",
"          ............................................          ",
"          ............................................          "
};
