/* XPM */
static char *_eb1ee29a3414b7c83d160b26163f81aHX8Ojm8lCp99LMUS[] = {
/* columns rows colors chars-per-pixel */
"64 64 248 2 ",
"   c None",
".  c #050201",
"X  c #0B0200",
"o  c #080804",
"O  c #140300",
"+  c #1B0200",
"@  c #190B02",
"#  c #1B1503",
"$  c #191314",
"%  c #280600",
"&  c #330E01",
"*  c #380801",
"=  c #231300",
"-  c #2B1B01",
";  c #281803",
":  c #331D01",
">  c #3B1D01",
",  c #361503",
"<  c #331B15",
"1  c #2B2803",
"2  c #332501",
"3  c #3C2202",
"4  c #342B03",
"5  c #372A0A",
"6  c #29370B",
"7  c #36360B",
"8  c #392616",
"9  c #3B3D15",
"0  c #393A17",
"q  c #2C2C19",
"w  c #2D2526",
"e  c #3A2B22",
"r  c #3A3828",
"t  c #3C3535",
"y  c #382C31",
"u  c #440600",
"i  c #441903",
"p  c #561900",
"a  c #510E00",
"s  c #681A00",
"d  c #751F00",
"f  c #462707",
"g  c #582A06",
"h  c #593409",
"j  c #482B16",
"k  c #572D16",
"l  c #483517",
"z  c #57361A",
"x  c #49370A",
"c  c #682903",
"v  c #7E2C02",
"b  c #752501",
"n  c #683509",
"m  c #77370A",
"M  c #683818",
"N  c #753A16",
"B  c #662C13",
"V  c #472D25",
"C  c #493729",
"Z  c #563924",
"A  c #463B36",
"S  c #563C33",
"D  c #763C25",
"F  c #683C24",
"G  c #34450E",
"H  c #2C4415",
"J  c #334415",
"K  c #344913",
"L  c #35451A",
"P  c #3C451C",
"I  c #344A1A",
"U  c #3B4818",
"Y  c #2F470D",
"T  c #3A4723",
"R  c #375124",
"E  c #43471A",
"W  c #5A441A",
"Q  c #4A430D",
"!  c #7B441A",
"~  c #6C4812",
"^  c #454826",
"/  c #5B4629",
"(  c #4A4736",
")  c #594737",
"_  c #56513D",
"`  c #68492A",
"'  c #784725",
"]  c #7A5329",
"[  c #664938",
"{  c #754B34",
"}  c #6A563B",
"|  c #785738",
" . c #69542B",
".. c #7B6538",
"X. c #4B3F43",
"o. c #4C4546",
"O. c #574A49",
"+. c #5A5348",
"@. c #595656",
"#. c #544F53",
"$. c #644F47",
"%. c #675749",
"&. c #755A47",
"*. c #655958",
"=. c #6C5454",
"-. c #696249",
";. c #7B654C",
":. c #77674A",
">. c #6B6558",
",. c #796955",
"<. c #747158",
"1. c #5A5B63",
"2. c #686568",
"3. c #766865",
"4. c #7B726A",
"5. c #6A6A72",
"6. c #77767A",
"7. c #746E76",
"8. c #5D605D",
"9. c #842C02",
"0. c #883907",
"q. c #933C09",
"w. c #873C13",
"e. c #813E27",
"r. c #874718",
"t. c #974919",
"y. c #98541C",
"u. c #8E450E",
"i. c #BD5A0C",
"p. c #BD560C",
"a. c #A54C19",
"s. c #A9541A",
"d. c #BD5515",
"f. c #BD5913",
"g. c #B8571A",
"h. c #A0440B",
"j. c #864926",
"k. c #875425",
"l. c #965629",
"z. c #865837",
"x. c #955A34",
"c. c #954922",
"v. c #A85828",
"b. c #B65A24",
"n. c #A95E38",
"m. c #AA562B",
"M. c #88653A",
"N. c #97643A",
"B. c #956A2D",
"V. c #AA6728",
"C. c #B77729",
"Z. c #A76738",
"A. c #B66434",
"S. c #AD7535",
"D. c #BA793A",
"F. c #B46828",
"G. c #BF761F",
"H. c #C3550C",
"J. c #C45509",
"K. c #C25513",
"L. c #C35714",
"P. c #C47B1B",
"I. c #C47C25",
"U. c #C37B3A",
"Y. c #875B45",
"T. c #955E4B",
"R. c #876847",
"E. c #976A48",
"W. c #8A754C",
"Q. c #96764D",
"!. c #876955",
"~. c #8C7556",
"^. c #957A57",
"/. c #926B53",
"(. c #A56B45",
"). c #A97549",
"_. c #B77849",
"`. c #A97956",
"'. c #B97B57",
"]. c #A66F54",
"[. c #867369",
"{. c #977967",
"}. c #897A77",
"|. c #886D63",
" X c #B87D64",
".X c #A57A63",
"XX c #C17E45",
"oX c #BC8534",
"OX c #C78530",
"+X c #998259",
"@X c #B88559",
"#X c #A98454",
"$X c #938575",
"%X c #AA8666",
"&X c #B98869",
"*X c #B69569",
"=X c #BA9776",
"-X c #B48C73",
";X c #C68448",
":X c #C78A58",
">X c #DD9C5D",
",X c #D7955C",
"<X c #D28D55",
"1X c #E19C5D",
"2X c #DCA25E",
"3X c #E2A15F",
"4X c #C88B68",
"5X c #C79568",
"6X c #DC9D64",
"7X c #DC9E6B",
"8X c #D39867",
"9X c #C99976",
"0X c #D69D74",
"qX c #D48E6B",
"wX c #E39E63",
"eX c #E49E69",
"rX c #E39D7A",
"tX c #DDA264",
"yX c #DDA26C",
"uX c #D7A56A",
"iX c #CBA377",
"pX c #DCA474",
"aX c #DDAC74",
"sX c #D8A779",
"dX c #CAA16E",
"fX c #E3A264",
"gX c #E4A36C",
"hX c #EAA46A",
"jX c #E7A669",
"kX c #E3A573",
"lX c #E2AA73",
"zX c #E2AB7B",
"xX c #EAA774",
"cX c #EBB175",
"vX c #787B84",
"bX c #837E87",
"nX c #878587",
"mX c #979799",
"MX c #928A89",
"NX c #A89389",
"BX c #BDA283",
"VX c #ABA6A9",
"CX c #DAAC86",
"ZX c #D1B28B",
"AX c #E8B188",
"SX c #CEB2A6",
"DX c #EECAAB",
"FX c #DFC49F",
/* pixels */
"                                                                                                                                ",
"                                                          ( A t e e C ^                                                         ",
"                                                  <.} k k.).@X:X9X5X4X@XS.M l *.                                                ",
"                                                ,.3 %XpXxXxXcXhXgXxXfXjXcXcX5X` $.                                              ",
"                                              S z.CXxXxXeXwXgX8XtX2XfX3X,XtXlXlXQ./                                             ",
"                                            $.E.AXgXfX,XhXhX6XlXtX2XtXtXtXfXfXtXcXz.~.                                          ",
"                                          >.W CX6X>XfXjX2XtXjXtXjX3XgX7XyXgX6XyXpX9XF                                           ",
"                                          Z *XaXfXfXtXtX2XtXtXjX3XfX6XyXyXyXgXtXpXCX| [.                                        ",
"                                          W aXuX6XhXxXkXlXtX7XwXhX6XtXgXfXhXgXkXzXCX&.$X                                        ",
"                                        %.W.5Xr.y.b._.<X7XkXxXgX6XxXgXwX<XD.V.m.Z.5X/.NX                                        ",
"                                        f #Xl.v b.a.q.q.t.Z.:XtXxX<XA.a.h.h.a.s.0.r.).Z >.                                      ",
"                                      [ 5X_.y.b a.m.A.m.A.e.r.zX6Xt.u.Z.A.v.s.t.~ c N.Q.[.                                      ",
"                                      j 5XgX_.m c N N e.D D g ).'.n M ! D M B c m l.&X&X[                                       ",
"                                    8 f 8XlX4X(.' g i * * i M ' ] p u * % * M z.).pXCX`.* ;.                                    ",
"                                  , 9XE.N.0X4XXXE.j.B D x.Z.N._.`.E.N.N.j.c N x._.5X0X! 5X/.)                                   ",
"                                O {.SX5X* (.AX Xj.x.(.x.7X7X8XAXDXAX0XrX'.Z.(.x.@X0Xr.n 9XZX!.@                                 ",
"                            r o ( 5 *X5Xp c '.qXqX Xj.].0XgXpXpX0XpXzXyX:Xe.'. X4X(.u N 4XZX%.X X o.                            ",
"                        @.o q ( T 1 j ] m k.p _.XXe.a n.t.l.:X,X6X<X_.r.l.a e.n.r.c l.g N.` @ ( A o # @.                        ",
"                    3.. . ( R L L 9 V % ! Z.n.c u N t.h.u.q.v w.0.m b 0.0.a.9.u m Z.Z.N & f ^ T T o.T o T                       ",
"                {.l z : _ r T J L E l i k.S.l.v c.A.b.b.b.b.F.u.y.v.n.v.b.b.A.a.b c.Z.k.> Z L H L T T R q X ) [.                ",
"            NXi | 9XCXR.O ( P I J E 5 k Z.s.v a.A.m.b.s.a.m.w.s b c.l.m.b.b.b.b.a.d a.n.n : ^ R I H T r ^ j Z k |.nX            ",
"        }.{.& 9XAX8XsX9X` = P U H ^ : N m.q.a.m.a.m.q.0.9.d s t.9.s b 9.q.a.m.m.A.t.9.n.' = P H I I L ^ X R.CXCXE.% NX          ",
"      }.Z | CXsX7XgXgXaXiXx 4 ^ L 9 > ! v.9.v.t.e.d s d 9.q.b.s.b.q.u.9.d s b t.m.m.9.m.k.= 1 R H I P O ^.CXsX7XzX&X+ NX        ",
"      [ E.sXlX6XwXhX6XuXaX*X4 7 T J = ' l.v t.c s 9.c.a.b.K.K.g.d.b.g.s.c.w.v s 9.c.9.w.k.2 7 H H R # R.sXpXgXgXgXCX=X% NX      ",
"    }.` zXaX>XjXfXeX1XfXuXaX+Xo E 7 = { j.s b b t.a.g.g.L.K.L.K.d.d.L.K.L.b.a.u.b d s D z., 4 J R 1 ` iXzXgXfXfXfXuXsX&Xj       ",
"    ` `.zX>XfX3XeXwXfXhXtXaXiXW 7 U - ' D d w.s.g.d.i.i.H.H.K.d.p.K.H.H.K.K.f.s.y.0.s N ' > 4 J E # *XpX6XfXwXjX2X6X7XsXi {.    ",
"    & @XgX1XeXeXeXeXhX1X2XuXuX..1 r & F l.t.s.f.L.H.J.J.J.f.f.i.p.H.H.H.i.i.i.f.f.s.t.l.D , 5 ^ 1  .sX7XeXeXeXgXgXtX6X7Xx.[     ",
"    & @XjXhX1XhXgXhXeX1XfXuXiX] # 9 , k l.F.L.i.H.J.J.J.i.L.i.J.J.J.H.K.p.p.p.i.f.g.v.y.k > 5 ^ # ^.pXeXwXhXeX7XtXtXhX8X].i     ",
"    k ).7XwXfXeXeXeX1XwXhXtXiXW 4 U 5 i m V.i.f.d.L.K.p.J.H.H.H.J.J.H.K.p.i.p.K.d.b.v.! f 4 7 E # +XaXlXwXwXgX7XhXwXhX<XE.&     ",
"    {.{ 8XwXjX3XeXeXhXhXtXlX*X- Q G 0 : h y.s.i.g.K.L.H.p.H.H.H.J.H.K.K.J.i.L.f.K.b.t.h : 4 9 E @ *XaXtXjXwXeXkX6XeXeXXXE.*     ",
"    SXz @XgXtX2XwXeXhX1XtXdX..- E U L 1 f n y.b.d.K.K.L.K.L.K.H.H.H.H.K.K.L.K.d.b.t.n 3 1 6 J P = W.iXuX,XcX7XhXeXhX<X_.F !.    ",
"    SXi ! 8XfX3XfXfX1X1XgX).5 E U I J 7 4 : m y.g.d.K.K.K.K.d.H.H.K.K.K.K.L.g.s.u.n f 1 6 H I T 4  .5XaXfXfX6XfXfXwXXXZ.* }.    ",
"    .XB _.Z.,XtXfX3XfX1X(.g l ^ I I K Y G 2 3 n t.s.g.f.g.g.g.g.d.K.L.g.d.g.s.r.M > 5 1 6 I K I 9 f B.:XfXfXfXfX>XoXZ.l.* !.    ",
"  [.* ]._.XX7XyX2X1X1XU.@XN.1 0 T I Y Y G 6 4 3 g ~ u.a.s.b.b.g.g.a.s.s.t.u.! g 2 7 6 6 H R K U E f N.oX;XhXhXjXfX,XZ._.].%     ",
"  3.g '._.7XkXyXgXfX1X3XjXdXx 9 T L K K Y K 7 1 2 3 g n ! u.r.u.t.r.r.! N h f 2 1 6 6 U U J G ^ ; M.aXjX1XwXwX7XeXfX<X_.'.k %.  ",
"  Z E._.:XeXgXgX7XhX>XjX2XuX..@ ^ P U G Y K J G q 5 - > f f g h n g h f > 2 5 1 6 Y K K 7 U U E o +XaX2XhXfXkXeXhXfX1XA._.(.Z   ",
"  u '.Z.:XhX>X2X6XgXgXyXtXaXR.@ 9 P I J K K K U L 0 0 7 4 2 4 4 4 2 1 1 7 7 6 9 G K U G U P P l ; &XAXeX7XkX7XeXhX>XhX_.m.).i   ",
"  * 4XN '.xXfXfXyXyXpX0XkX9XR.% 1 J E P U E U U T E T 0 E 6 1 ; - 7 T J ^ 0 ^ E E U Q U E l 0 1 % -X0XsXrXkXpXuXyXxXhXA.r.'.f   ",
"  u  Xw._.0XgXyXkX0X0XBX0X-X[ + 5 4 0 0 j 7 7 7 9 7 7 x 1 l /  .` 5 - l 4 x 2 2 4 1 x 3 4 4 2 - - ].9X0X0X0XpXcXyXuXkXZ.N '.f   ",
"  u  XD ].AX9X`.N.z.` ` F ` S |.l & % > f x h h h W Q ; ~.ZXFXSXZXBX;.-  .~ ~ ~ ~ ~ ~ Q n g , } !.` { D ` { z.M.#XdXCX].c  Xk   ",
"  , &Xz.| !.z [ [ ) O.$.) ) V =.k E.).S.C.C.C.oXoX#X] ..=X+XBXDXFX%X%X` S.#XoXOXOXoXG.C.D.@Xx.R.{.O [ &.=.=.$.$.} z .XY.D  XV   ",
"  & .X/.O %.}.>.#.w A y C C A j , z._.;XOXOXOXP.OXoXk.B.| @ O ZX{.+ Z ~ B.OXOXOXOXP.OXoX;XZ.' % j A V t A A y o.4.[.V % T..Xj   ",
"  $.;.$.;.bX=.w #.bX5.7.7.3.3.3.S * i k.S.G.P.C.F.oXZ., ` j f ^.;.& k * S.D.G.P.G.C.C.B.g j.Y.< %.*.*.3.2.2.vXX.w >.{.j Y.].V   ",
"  2.O S bX*.w 7.mXmXbX7.[.[.3.) j j &Xj.n S.C.V.S.S.! E.DXZXR.z Q.-X=Xz.! S.V.F.V.S.l.c @XCX=.A 3.4.6.vX7.vXVXnX8.$ 3.;.i /.)   ",
"    V =.3.y *.mXmXmXbX7.=.V & | z.> E.=Xi ' ] ] ]  .h R.=XZXFXFXZX=X^.^.f z.] ! ~ ] , M.AX%X+ k 8 e *.2.5.nXmXmXmX@.X.=.S *     ",
"    @.X.X.w bXmXnXbX3.=.* Y.=XiXsX9X' Y.| & f f f 5 j 2 X W.ZXZXZX+X= 3 x i 3 l l l + ^.^.h `.5X-XY.8 O.2.5.nXmXmXvX$ o.[ <     ",
"    O.e y #.}.7.vX5.#.< T.CXCXuXdXAX&X* i | &.| | ..} } / / j 5 l C ` } } ..&.%.-.:. ./ k 0XAXpXzXCX.X8 o.*.7.vXvXvX1.y + #.    ",
"    2.. O.2.7.vXvX2.V Z 9X0XuXlXyXpX].% &.,.;.:.<.:.:.:.,.:.!.,.,.<.,.~.;.&.} } <.:.:.Z k 4XkXkXgXpXCX^.% =.*.7.vXvX1.X.X       ",
"      *.q 2.6.vX2.#.% `.zX8XB._.:X).g  .!.:.>.-.-.} -...:.-.) ) C q ; V S j C -.<.-.,.;.> Y.'.:X_.Z.0X0X{ C $.2.vXvX5.t o.      ",
"      4.o #.1.5.@.V F dX8XyX:X! n g z | ,.<.<.<.-./ l C 8 <             X +.-.<.-.<.:.,.[ i g c j.'.0XCX&X% $.1.2.2.*..         ",
"        MX. 1.#.$., Q.pXlXgXzXsX`.h ` !.:._ *.<.>.) ( +.X               t o *.<.-.( -.,.R.i z.@XzXlXlXlXdX` V *.#.1.O 2.        ",
"          6.o *.( i 4X6X;X,X8X*XW.j Z [ +.^ _ _ ^ ( A X                   #.. +._ ^ +.[ [ i Y.@X5XuX:X:XuXQ.2 +.1.X.$           ",
"          nXo.S [ B qXxXD.m (.Y.k j S S C S C C C e @                       @.. ( ( A S / j j N.N.x.m XXrX`.f O.+.. 5.          ",
"            mX@ , {  XrXrX_.N g & j j j j l l V < C                           >.X C 8 8 j x z f ' k.qXAXrX`.` ) . 8.            ",
"              VX< + u T. X X].F | {./.~.^.^.~.&.C (                             @ ) W.~.W.+X+X| ' '.4X4X XY.O @                 ",
"                mXNXNX=.* k j j R.~.~.Q.W.~.;.[ O A                             X %.;.:...W.M.R.M F g * * [                     ",
"                        NX) Z l f : l `  ./ j q (                               y < j k j > f j z % )                           ",
"                          4.:.5 W `  . ./ } :.X                                   O ;.&.` } &.%.} 5 %.                          ",
"                          V &.+X+X+X+X^.^.~.-.o                                   @ !.~.{.+X+X^.+X+X%.;                         ",
"                        @ / ~.W.W.^.W.W.W.:./ .                                   X ;.!.~.W.W.W.W.W.^.) ;                       ",
"                        @ < % , : : : - 1 8 e                                     w = 5 5 0 8 8 4 5 8 8 @                       ",
"                                                                                                                                ",
"                                                                                                                                ",
"                                                                                                                                "
};
