/* XPM */
static char *_0b2b0a4522040f897c195394f0132923pUmagMvOXhQwxQG[] = {
/* columns rows colors chars-per-pixel */
"64 64 245 2 ",
"   c None",
".  c #030200",
"X  c #0C0200",
"o  c #0E0B08",
"O  c #150100",
"+  c #1D0100",
"@  c #190B02",
"#  c #191505",
"$  c #0E1607",
"%  c #230300",
"&  c #2B0300",
"*  c #230C01",
"=  c #2C0B00",
"-  c #380700",
";  c #2C1B01",
":  c #281603",
">  c #3B1C00",
",  c #351806",
"<  c #2B1A13",
"1  c #341E15",
"2  c #2C2301",
"3  c #282803",
"4  c #372605",
"5  c #2A360C",
"6  c #33330A",
"7  c #382816",
"8  c #383916",
"9  c #2D2D15",
"0  c #392A24",
"q  c #3A3926",
"w  c #363133",
"e  c #21211A",
"r  c #451A01",
"t  c #591802",
"y  c #411E1A",
"u  c #651A00",
"i  c #6F1A00",
"p  c #462707",
"a  c #572905",
"s  c #57330A",
"d  c #472C19",
"f  c #572E15",
"g  c #483518",
"h  c #563919",
"j  c #423105",
"k  c #6A2704",
"l  c #732601",
"z  c #64350B",
"x  c #79360A",
"c  c #6A3917",
"v  c #753D15",
"b  c #742F10",
"n  c #452B24",
"m  c #493724",
"M  c #573A28",
"N  c #483B37",
"B  c #563D34",
"V  c #693927",
"C  c #2C480E",
"Z  c #35450C",
"A  c #2D4B12",
"S  c #2E4415",
"D  c #344414",
"F  c #344A14",
"G  c #354A1A",
"H  c #3A4B1B",
"J  c #384619",
"K  c #3B4622",
"L  c #3F5125",
"P  c #44461A",
"I  c #42490E",
"U  c #794318",
"Y  c #66421B",
"T  c #464527",
"R  c #584429",
"E  c #4A4836",
"W  c #584836",
"Q  c #535331",
"!  c #684826",
"~  c #76482A",
"^  c #6B522B",
"/  c #76552A",
"(  c #664B39",
")  c #754C35",
"_  c #695438",
"`  c #765735",
"'  c #79633B",
"]  c #6C613C",
"[  c #3F3D42",
"{  c #4C3D40",
"}  c #554948",
"|  c #554F50",
" . c #654B44",
".. c #6B5B44",
"X. c #695747",
"o. c #775944",
"O. c #695B56",
"+. c #795C56",
"@. c #6E644B",
"#. c #7C6543",
"$. c #75674A",
"%. c #69645A",
"&. c #756857",
"*. c #747055",
"=. c #6B6869",
"-. c #786C68",
";. c #7A736B",
":. c #716E74",
">. c #787679",
",. c #6D6B76",
"<. c #5F5C67",
"1. c #883808",
"2. c #863A1A",
"3. c #923605",
"4. c #893E24",
"5. c #97440B",
"6. c #894718",
"7. c #984A19",
"8. c #904D12",
"9. c #BD550D",
"0. c #BF570C",
"q. c #A8541A",
"w. c #BC5414",
"e. c #BD5A16",
"r. c #B3591C",
"t. c #BC5A1B",
"y. c #B85619",
"u. c #AE4C16",
"i. c #8A4B29",
"p. c #9A4925",
"a. c #865529",
"s. c #985727",
"d. c #875838",
"f. c #995433",
"g. c #8B4E34",
"h. c #AA5927",
"j. c #B45B25",
"k. c #B75A25",
"l. c #A95D36",
"z. c #AD542C",
"x. c #896537",
"c. c #9B6236",
"v. c #BB722B",
"b. c #A86938",
"n. c #B86834",
"m. c #B47439",
"M. c #AF682B",
"N. c #C3540C",
"B. c #C25507",
"V. c #C35513",
"C. c #C25A13",
"Z. c #C45917",
"A. c #C57D37",
"S. c #875C46",
"D. c #915F44",
"F. c #826D4B",
"G. c #886749",
"H. c #966A43",
"J. c #8A764D",
"K. c #97754B",
"L. c #876C56",
"P. c #8C7456",
"I. c #957958",
"U. c #956953",
"Y. c #A66C48",
"T. c #A8754B",
"R. c #B67747",
"E. c #A77957",
"W. c #B37B53",
"Q. c #B77B57",
"!. c #B26847",
"~. c #857567",
"^. c #977A65",
"/. c #887975",
"(. c #937267",
"). c #A67D65",
"_. c #C47D4A",
"`. c #C3843E",
"'. c #99845D",
"]. c #BB824C",
"[. c #A9845B",
"{. c #B88557",
"}. c #988367",
"|. c #998678",
" X c #8E8575",
".X c #A68766",
"XX c #B58767",
"oX c #B68C75",
"OX c #BB977B",
"+X c #B09273",
"@X c #B8A67F",
"#X c #C58446",
"$X c #C98857",
"%X c #D48D56",
"&X c #D9955B",
"*X c #D18A50",
"=X c #E49C5D",
"-X c #D9A15F",
";X c #E6A15E",
":X c #C48866",
">X c #C8976B",
",X c #DE9C64",
"<X c #DE9D6B",
"1X c #D79867",
"2X c #C79A76",
"3X c #D59A73",
"4X c #E39E64",
"5X c #E39E6A",
"6X c #E99F63",
"7X c #E59C72",
"8X c #DDA265",
"9X c #DDA26B",
"0X c #DBA667",
"qX c #DCA475",
"wX c #DAA77A",
"eX c #D1AD7F",
"rX c #E4A264",
"tX c #EAA165",
"yX c #E3A36C",
"uX c #ECA46B",
"iX c #E8A96B",
"pX c #E3A472",
"aX c #E3AA74",
"sX c #E6A878",
"dX c #F1A96F",
"fX c #797781",
"gX c #978986",
"hX c #8E8B97",
"jX c #929499",
"kX c #928F8A",
"lX c #AA958B",
"zX c #B2A18D",
"xX c #9796A3",
"cX c #CB9D88",
"vX c #CBA285",
"bX c #D8A884",
"nX c #D8B296",
"mX c #D1B190",
"MX c #E5AB84",
"NX c #EAB692",
"BX c #D7B7A4",
"VX c #DCC7AE",
"CX c #E9C7A4",
"ZX c #DAC29D",
"AX c #FEEDE0",
/* pixels */
"                                                                                                                                ",
"                                                                                                                                ",
"                                                                                                                                ",
"                                                                                                                                ",
"                                                         X X|.|.^.}.}.-.                                                        ",
"                                                gXzX}.x.x.H.E.Q.{.{.K.x.S.L.|.                                                  ",
"                                          lXOXF.x.K.{.eXqXaXaXaXaXqXaXMXwXOXc P.;.                                              ",
"                                      zX~.^ K.2XwXaXaXiX9X4X,XrXrX8X,X0XqXwXMX` _                                               ",
"                                    lXd [.eXwXqX<XyX5X4XrXrX-XyXyX9XpX9X0X0X3XbX` &.                                            ",
"                                  |.M bXbX0X<XyX5X5XyX5XyXyXyXyX9XyX0XqX8X0XyXqXwX= /.                                          ",
"                                lXr bXwX0X8XrX4XdXpX7XsXyX,XiX8XiXyXyX8X;X;XrXtXMXU.+.                                          ",
"                              /.) ).MX3XsXrX4X%X_._._.$X5XsX].m.*XtXrXrX;X=X;X;X7X3X%                                           ",
"                            N M c g.>XsX$Xq.5.3.5.1.p.u l.iX#XM.v.A.*X-X;XdX=X=X4XMXt O.                                        ",
"                          ;.+ X.G./ k W.v 6.b.l.l.b.b.1.k $X&Xv.v.k.b.M.m.*XtXtXuX1Xr &.                                        ",
"                            /.+.) V f ) a g.g.V v v a k h.R.4X&X#X#X].{.].x.m.,X1XW.f ~.                                        ",
"                              gX) & ~ ~ r & r & - a s.!.R.&X6X4XtXuX3XT.x.T.k T.!.W.v % ;.                                      ",
"                               .cXNXMX>X3XW.W.W.U / f.R.%XtXaX8XdX5X!.t U g.i.i.W.c.a x.c _                                     ",
"                            +.S.NXNXMXMXpX9XwX3Xd.c.R.&XtXdX&X&X&X6X$X_.W.Q.k l.Q.U a.{.mXJ.o <.                                ",
"                            lXr Y.Q.2XQ.b.b.{.W.t W._.<X1Xh.1.5.u.A.A._.1Xi.2._.!.s.T.>X[.g N . q                               ",
"                        /.(.i 4.u k l u t 2.2.u t 2.f.f.l 3.j.j.q.u.5.7.f.f.Q.W.T.E.J./ : g K E q . =.                          ",
"                      /.g.b n.z.5.s.q.z.u.3.3.u.z.1.t 7.h.Z.N.Z.Z.e.t.j.i.D.K./ ! j 3 3 H K J K L E $ 5 kX                      ",
"                      (.k !.j.7.k l z.z.k.k.t.r.j.j.1.5.j.t.V.N.w.w.e.M.c = 4 6 6 6 F H S Q 8 3 $ $ 3 $ X ;.kX                  ",
"                    /.- Y.4.1.u l k u 1.7.q.y.k.y.y.k.3.5.r.w.V.C.e.t.h.a d Z F H C H H g * 4 / x.'.x.'.K.! d ^.gX              ",
"                    +.V 4.i 3.2.h.h.1.i u 1.3.q.j.k.k.3.l q.t.w.w.e.j.x ; P P A F H G g * x.>XqXwXaXaXaXqXsX3Xg.& gX            ",
"                  ;.& t 1.7.z.k.w.t.y.u.5.l k k 1.p.l.7.l 5.w.N.t.r.7.t 4 P D F F D T @ H.sXpX9XyX<X,XyX4X4XpXMXXX+ gX          ",
"                  -.r f.h.r.w.w.9.N.V.Z.t.q.5.1.i u 4.f.k 1.w.e.r.h.z r 4 D D H F P 9 M 2X<XiX-X4XyXrXrXrXtX4XyXMX).1           ",
"                  o.k l.y.9.C.0.V.V.N.N.B.w.t.u.4.1.u k k 1.j.r.q.6.r 4 6 D J J C L . F.bX0X8X0X8XrXrX8XrXtXtX4XqX2X; %.        ",
"                  o.k n.0.0.0.9.w.V.N.N.B.B.N.Z.k.p.p.l u 7.h.M.6.s p 4 6 J J Z F G X ^.MX0X0X0XrX8X8X9XrXrX;XrX<X>Xh %.        ",
"                  +.t z.V.Z.9.w.V.V.V.V.V.V.V.V.V.V.u.5.3.t.j.6.v > 6 5 Z G D F F F # ^.sX5XrX;X;XrXyXyXyXrX6X6XiX{.^ X.        ",
"                  gX- l.z.V.w.w.V.V.N.0.N.V.V.V.V.V.V.9.y.k.7.v p ; 5 5 G G D F F F # #.bXdX&XtXtX;X4X9X9X4X6XtX5XW.f ~.        ",
"                  jX+ a.k.t.t.w.w.N.C.C.V.V.V.V.V.w.9.C.u.6.v r ; 6 5 S G G D D F F 6 d :X7XiX;X;X;X8X8X,XrX6X4X_.Y.& /.        ",
"                  >.X f p.k.y.t.C.w.C.0.C.V.V.Z.y.t.q.5.6.v > 4 9 9 S G S H D D Z P T + c $X8X;X;X;X8X8X0XrX4X&XW.c lX          ",
"                  :.X 7 r v h.j.r.r.e.e.Z.Z.w.u.u.5.8.U a 4 4 6 5 S G J D G D H P 8 @ K.b.U m.&X;X;X;X-X-XrX%Xm.Y.& mX          ",
"                  :.. N , > r v 8.8.q.7.7.7.7.5.6.z a p 4 3 5 5 G F Z F H H D K T @ G.bXsX$X].#X*X;X;X;XyX&X].m.T.f |.          ",
"                    . E m 8 4 : p s z z U z z a p 4 4 3 3 C A A A A A A A S K K 2 R wXqX9XiXuXrX=X4XyX0XpXpX4X_.T./ o.          ",
"                    =.. E q 8 8 6 2 ; p > 4 > 2 4 4 5 5 C C A A A A C A A G K K O .XwXyXuX=XtX4XtX4XpXyX<X5XdX&X].` W           ",
"                      E . T K 8 8 T 8 : 3 I g 8 8 D D J F Z Z Z F F C A A A G 5 p OXyX4XuXtX,XrX;XrX9XyXuX,X6X6X].`  .          ",
"                        &.# q T 9 @ 6 Q Q 3 3 6 P P J P I I I I P I H A A G K 3 R eXiXrX=X4XyX0X0XrXyX5X5X6X6X&XR.Y O.          ",
"                        =.+ q < ] @XCXZXZXmX'.Q 4 4 2 ; 2 2 2 3 2 3 3 3 5 8 K : ! wX,XuXrX=X0X8X0X9XpXiX4XtX6X_.T.> /.          ",
"                    /.@ 1 W 0 + }.CX+X_ P @XCX+Xs / x.x.x.x.x.x./ ' ] ] T 2 9 7 = Q.sXpXyXsXaXwXaX0X$X&X6XuX_._.T.+ -.          ",
"              lX|.( & M f B n % #.zX@ O + _ vX@Xa.8.`.`.`.`.`.#X#X].[.K.B 1 O.B % - G.Q.:X:X:X$XT.s.m.,XuX%X!.Q.r ~.            ",
"            kX* (.cXoX) S.M & B ` > ) ^.OXmX@Xm.U 8.`.v.A.v.m.8.U U a = + w N O.X.% M U.S.i.i.c.R.$XpXdX$Xb.W.d.&               ",
"             .( U.S.- .XmXV O ` nX2XvXnX2XZX>Xa a M.M.b.m.s.a a.XXd.=  .[ e e | ;.&.B o.OXbXMXsXsXaX1X].Y.Q.d.+                 ",
"          gX& r oX2Xx.~ (.> , M vXCXCXnXL.; s > s Y U v ^ = I.nX^.=  .| | <.[ K w -.-. .1 ) {.2X3X1XW.T.E.) (                   ",
"        |.% ^.).U.:XoX* O ..M , p d g R R d g M m d M M d +  .(.O | | <.,.fX:.} 0 w | O.kX;.W ^ ^ ~ S.o.B % :.                  ",
"        n I.nXbXoXr ) S.( M 7 d @.@.@.] @.$.&.@.&.&.+.X., (.).+ } O.| =.>.,.>.>.-.w w e =.;./. XL.X.V B < 1                     ",
"        + oXnXoXV a D.cXcXI.d d @.*.*.$.#.@...@.&.@.*.( r cXNXE.+ | %.:.>.fX>.>.>.hX,.,.o w } n  .O.+.{ o                       ",
"        /.m G.p d.MXT.f.).cX .: X.*.@.$.$.@.@.m m E m M = U.2XbX$.O O.-.:.>.>.fXhXxXxXxXhX=.| { # e X {                         ",
"            o.) MXsXpXbXQ.V 1 n Q *.@.$.@.*.&...W m @ ( V f ` d.).L.O B ;.>.fXjXxXjXxXhXhX>.>.O.N w X                           ",
"            /.p vX3X3XY.a S.d & m W @.$.*.X.@.*.X.R m 4 +.V - = ).vXoXR * } ,./.kXhXhX>.=.:.| N { X |                           ",
"              /. .+.f & >XeX:Xx.; R _ W ..W R X.X.W W M n  .B d ) XXvX2XI.M 4 d  .=./.-.O.N 0 0 .                               ",
"                   XM ).nXNXsXbX#.O m n 4 7 8 7 , d 7 0 , 1 n d & p / d.x.XX+XL.M m n 1 1 1 1 7                                 ",
"                    L.m oXoX).V  . ., R $.#.#.' F.#.*.F.` m M 7 f ! ! - s K.E.E.G.! d ( B n N                                   ",
"                    jXzX~.L.oXBXAXVXO o.P.'.J.J.'.J.J.J._ _ g , ( ~.^.U.) a p s h ` P.$.( @ N                                   ",
"                        xXVXVXBXzX+X* * 4 ^ ' ' ^ Y P g g g ..W , p g ( L.G.` ! ! Y ! p M 9                                     ",
"                        ;.n d m ! _ F.#.` ! ' I.J.J.' ! g : ..( m g 7 d _ P.I.I.J./ R g E                                       ",
"                       XX *..X[.'.'.'.'.'.'.K.J.I.'.J.j h F.$.P.I.^.I.P.#.^ ^ I..XL.^ M W                                       ",
"                      W 7 _ ` ` #.] $.' ' ' $.#.#.x.g d _ F.'.P.P.P.G.J.I.G.' ' $.( ( N 0                                       ",
"                      | 0 0 9 7 < < < < 3 < 7 7 7 7 < ; 9 * : : = : : : ; ; 4 7 9 0 0 1                                         ",
"                                                                                                                                ",
"                                                                                                                                ",
"                                                                                                                                ",
"                                                                                                                                ",
"                                                                                                                                "
};
