/* XPM */
static char *_0115498d0cf4cc1ac2bf8b6e0e49fe7WDIMTTpkzmDIq4oG[] = {
/* columns rows colors chars-per-pixel */
"64 64 246 2 ",
"   c None",
".  c #0B0200",
"X  c #080500",
"o  c #140201",
"O  c #1C0100",
"+  c #1A0B04",
"@  c #181500",
"#  c #0E120E",
"$  c #230200",
"%  c #2B0400",
"&  c #270C00",
"*  c #360700",
"=  c #2B1303",
"-  c #2C1B00",
";  c #261705",
":  c #351903",
">  c #2B1C11",
",  c #251812",
"<  c #351E15",
"1  c #1E280B",
"2  c #292603",
"3  c #322403",
"4  c #3B2301",
"5  c #352908",
"6  c #2D330D",
"7  c #29350A",
"8  c #382817",
"9  c #383A17",
"0  c #303011",
"q  c #372924",
"w  c #3C3428",
"e  c #3A3638",
"r  c #282128",
"t  c #221A25",
"y  c #450C02",
"u  c #441A02",
"i  c #581E00",
"p  c #641B00",
"a  c #691A00",
"s  c #6F1900",
"d  c #462508",
"f  c #582906",
"g  c #462B17",
"h  c #562D15",
"j  c #44311A",
"k  c #4C351C",
"l  c #473718",
"z  c #57381A",
"x  c #50330A",
"c  c #692703",
"v  c #762602",
"b  c #67370B",
"n  c #7B3606",
"m  c #693B15",
"M  c #783A16",
"N  c #682C16",
"B  c #472D26",
"V  c #473827",
"C  c #573928",
"Z  c #463837",
"A  c #553E35",
"S  c #643B2A",
"D  c #6E2F20",
"F  c #34480D",
"G  c #2E4512",
"H  c #2E4913",
"J  c #344514",
"K  c #334A14",
"L  c #384819",
"P  c #2C450D",
"I  c #3B4623",
"U  c #434719",
"Y  c #414D17",
"T  c #764319",
"R  c #62461F",
"E  c #474629",
"W  c #584326",
"Q  c #494936",
"!  c #594737",
"~  c #54532F",
"^  c #684727",
"/  c #784828",
"(  c #6B5226",
")  c #735A2C",
"_  c #644C3B",
"`  c #684935",
"'  c #764C37",
"]  c #6A5338",
"[  c #795637",
"{  c #776436",
"}  c #6A623D",
"|  c #4B3C43",
" . c #4E4547",
".. c #594A49",
"X. c #585555",
"o. c #575054",
"O. c #684C42",
"+. c #6B5B4A",
"@. c #675647",
"#. c #785A46",
"$. c #6A5A56",
"%. c #715953",
"&. c #6C6349",
"*. c #766649",
"=. c #6A6256",
"-. c #786755",
";. c #6A6767",
":. c #7A6B67",
">. c #7A746A",
",. c #776F72",
"<. c #787478",
"1. c #6B6F76",
"2. c #615D66",
"3. c #893809",
"4. c #973C07",
"5. c #853912",
"6. c #954208",
"7. c #894516",
"8. c #974917",
"9. c #8E5119",
"0. c #BC540C",
"q. c #BD590D",
"w. c #A64D18",
"e. c #A9541A",
"r. c #B55514",
"t. c #BD5413",
"y. c #BA551A",
"u. c #BB5B1B",
"i. c #B85918",
"p. c #AF4D0D",
"a. c #844A27",
"s. c #954D28",
"d. c #895427",
"f. c #865937",
"g. c #995535",
"h. c #93522C",
"j. c #A95928",
"k. c #B65A25",
"l. c #AC5831",
"z. c #876738",
"x. c #976535",
"c. c #A9672D",
"v. c #B76629",
"b. c #B9762C",
"n. c #A66834",
"m. c #B76737",
"M. c #B77438",
"N. c #AD7237",
"B. c #BB611B",
"V. c #C3540D",
"C. c #C35414",
"Z. c #C35A14",
"A. c #C2581A",
"S. c #C45E22",
"D. c #C6773A",
"F. c #8A5C46",
"G. c #866749",
"H. c #946B46",
"J. c #89744D",
"K. c #97764C",
"L. c #876B56",
"P. c #8B7556",
"I. c #977858",
"U. c #966A57",
"Y. c #A66A44",
"T. c #A97449",
"R. c #B57749",
"E. c #AA7856",
"W. c #B47C56",
"Q. c #B4694C",
"!. c #86756A",
"~. c #997B66",
"^. c #857977",
"/. c #8A6C63",
"(. c #A67C66",
"). c #C57D49",
"_. c #BE8337",
"`. c #C08739",
"'. c #998659",
"]. c #BE864C",
"[. c #AA825B",
"{. c #B78357",
"}. c #9A867A",
"|. c #96856F",
" X c #A48667",
".X c #B88863",
"XX c #BC936A",
"oX c #A68A7A",
"OX c #B98D75",
"+X c #BA9B7C",
"@X c #AC926C",
"#X c #BAA47C",
"$X c #C6864B",
"%X c #D48A4C",
"&X c #C88956",
"*X c #D48D57",
"=X c #DA965B",
"-X c #E29C5C",
";X c #E69B5D",
":X c #D8A35E",
">X c #E8A25F",
",X c #C58A65",
"<X c #C9976D",
"1X c #DD9E64",
"2X c #D99A68",
"3X c #C69B76",
"4X c #D69770",
"5X c #E39D63",
"6X c #EA9E62",
"7X c #E49E6A",
"8X c #E59868",
"9X c #DCA264",
"0X c #DDA26B",
"qX c #D7A566",
"wX c #DDA473",
"eX c #D9A87A",
"rX c #C9A176",
"tX c #E4A364",
"yX c #EAA264",
"uX c #E2A36B",
"iX c #EAA46B",
"pX c #E8A96C",
"aX c #E4A474",
"sX c #E2AA7B",
"dX c #E7A876",
"fX c #EEAA6F",
"gX c #7C7981",
"hX c #8D8A8A",
"jX c #988883",
"kX c #909095",
"lX c #AA9D99",
"zX c #A79488",
"xX c #9398A2",
"cX c #C89E89",
"vX c #C9A484",
"bX c #DCAB82",
"nX c #D3A584",
"mX c #DBB388",
"MX c #DAB698",
"NX c #C9B096",
"BX c #E5AB83",
"VX c #E6B689",
"CX c #C5ACA6",
"ZX c #D7C5AE",
"AX c #E9C9A7",
"SX c #E5C396",
/* pixels */
"                                                                                                                                ",
"                                                                                                                                ",
"                                                                                                                                ",
"                                                                                                                                ",
"                                                        :.!.!.P./.-.=.                                                          ",
"                                                  }.L.[ z.E.[.{.{.E.H.z.*.I.}.!.                                                ",
"                                              }.I.m XXeXBXsXpXpXsXdXeXsXeX<XK.z.G.oX}.                                          ",
"                                            ,.' f.mXeXeXwX2X9XyX8XaX0X0XqXwXdXeXrXK.` /.zX                                      ",
"                                            /.' mXqX0XqX0XwX0XtXuXuX1XtX7X5XuX0XdXeXbX[.g oX                                    ",
"                                          }.% nXwXpX9X9XwXaX2X0XuX1XpX5X7X7X8X5X1X2XqXVXnXS }.                                  ",
"                                          -.U.BXuX=X>X:XuX0X5XpX9X1X7XiXaXfXiXiXyXyXtX0XaXnXy ~.                                ",
"                                          % 3XaXyX>X-XtXtXiX6X%XM.$XaX7X).).$X).%X-X-XpXaXBX(.#.^.                              ",
"                                        :.h BX8X6X;XfXyX:X%XD.b.c.$XdXn.p 8.8.4.6.6.w.&XBX,Xh.h C A                             ",
"                                        :.y 4XaXiX5X*XN.c.b.v.b.M.=X&Xc M n.l.m.j.c.s.M W.h f.L.#.o ^.                          ",
"                                        L.h W.2X2XR.d.{.{.].$X).-X7XD.j.p c b M a.a.f.h ' h S ` -.^.                            ",
"                                      !.$ ^ T.R.R.c E.z.Y.2XiX7X7X6X*X).R.s.N * % y % y ' / % ' jX                              ",
"                                    &.R x.i Y.R.d.a.f.T i c.iXiX2XiXiX*XM.l./ a.W.E.W.<X<XVXSXnXO.                              ",
"                                =.. *.MX[.9.5.R.n.c E.W.$X*X;X1X2X1XiX8X2XR.x.f.eXBX0XeXsXBXBXVX#.                              ",
"                              e X e j '.3XR.g.Q.Q.M s.4X*Xm.D.e.6.3.l.8X4X,XE.i Q.W.Y.Y.W.,X{.Y.y (.                            ",
"                          X.X 9 Q I 9 ; ( x.T.W.W.W.g.s.w.8.y.e.k.j.4.v s.s.5.p p 5.5.p p c i c 7.c U.                          ",
"                      >.1 # ~ E I J I J 7 - x R ) K.f.h.k.B.t.A.Z.t.i.e.8.a 5.j.w.4.4.w.e.8.h.7.l.Q.D O.                        ",
"                  hX>.X # 7 # @ 2 J E I L U 9 7 5 5 = M v.r.q.0.V.V.i.v.8.5.k.y.k.u.S.r.v.w.n c w.j.Q.D /.                      ",
"              lX(.g ^ K.'.z.K.z.( 4 @ U L J F Y K Y x u j.e.t.A.V.C.S.4.3.k.p.B.i.e.j.8.3.p c v s 5.g.Q.y jX                    ",
"            lX$ f.4XsXdXdXsXeXeXeX<XG.= j U L P K J 9 : b v.r.A.C.S.j.s 6.k.B.r.p.3.3.a s 3.j.j.4.v s 5.D /.                    ",
"          lXO (.BXdX8X7X7X1X2XuX2XwXbXH.$ E 9 K F J U : i 9.k.A.C.r.4.v 8.k.w.3.s s v 6.p.i.i.i.k.y.l.v h % ,.                  ",
"        <.; ~.bX7X7XyXyXuXtXuX5XuXuXdX3XC 8 L F K L L d u b j.r.k.y.3.c s.7.s c 3.8.e.u.u.Z.V.V.0.k.y.l.g.* :.                  ",
"        zX- rXeX1XtXyXtX0XuXyX9XqX:XqXbXL.X E J L L J 9 3 u 9.e.r.k.5.v c f n 8.j.i.t.V.V.V.C.V.t.A.C.y.l.N #.                  ",
"        !.z <X0XtXtXtX0X1XuXuXyX:XqXqXeX X. L J H L L 5 5 4 f s.k.j.s.c c 8.w.k.u.q.0.V.V.C.C.V.t.0.C.A.v.N O.                  ",
"        L.^ ,XaXtX5XuXuXuXuX6X6XyXtX7XeX(.o F F H H L G 7 0 : m 9.l.i.6.4.p.C.C.C.C.C.C.A.C.C.t.0.q.Z.C.Q.y %.                  ",
"        jXh W.*XyX5X9XuX0XuX6XyX>X5XdXeXG.+ Y F K H H K 7 6 3 d M 8.e.r.V.V.C.C.C.C.C.C.t.t.C.Z.q.Z.t.y.l.* /.                  ",
"        jX& W.).6XyXtX0X0X9XyX>X>XtX0X.Xx 0 Y L K G H L 6 7 0 3 d T 6.e.u.i.C.A.C.Z.C.C.Z.Z.V.V.t.y.y.m.a.O ;.                  ",
"          zXm R.*X5XuXtX9X9XyX-XyX5X,Xb O k U J K K L H L G 7 6 5 : b 8.8.e.k.r.t.Z.A.t.q.V.Z.C.A.k.l.s.h o X.                  ",
"          NX% Y.M.%XtX:X9XtX>XyX*XR.M Y.K.$ l U I H H G K K G 7 0 5 4 x M 7.9.p.r.y.t.y.i.t.u.k.k.l.M : 8 X X.                  ",
"          oXh T.M.R.:XtXtXtX;X%X$X].*XsXbXG.+ U I H K H K P G K 7 0 2 3 4 f b 7.8.8.w.w.8.j.8.7.5.f : - Z X                     ",
"          +.' R.$X1XuX0X9XtXyXyXtXfXpX9XdXeXW 2 I H H H K L L K H H 7 7 5 4 4 d f f b m b b x : 3 5 5 V E .                     ",
"          ` f.R.=XfXyX0X0XpX:XyXtXtX-X9XqXeX@X@ I I L H K K K L H H K J P 7 6 5 3 3 : 4 3 3 3 6 6 6 9 Q X =.                    ",
"          O.[ ).6X6X;X7XuX0X9X:XpX9X5XtX=XeX3X5 J L J K F F F F Y F F F J J 9 9 9 U 9 - 2 9 9 w L I Q X e                       ",
"          -.^ R.=X6XiX6XuX0X0XqXqX0XtX>XuXdXrX( 2 I L L F F L Y Y U Y Y Y U E U P 1 3 ~ ! 9 X 6 w E +                           ",
"          jXu Y.).6X6X;XtXuX0XqX0X0X:X-XiX2XeX^ - V 9 6 2 1 2 2 - - 3 2 2 3 4 3 ~ '.MXNXZXZX#X} 0 B o  .                        ",
"          ^.O E.M.%X6XyX=X$X0XwXdXdXfXaXaXBXE.* 8 8 2 E } } { { z.z.z.z.z.z.) x @XSX#X( ] @XAX XO q  .8 o >.                    ",
"            ~.u W.Y.*X6X-XM.j.N.].&X,X,XE.F.y $ A @.r A I.E.W.].]._._._.`.$X9.d.rXeX) o O O #X#.$ B C B A O O.}.lX              ",
"            <.$ f.W.N.&XiXuX&X].x.d.d.f.U.S % %.$.Z q O & N 7.n 9.b._._.b.b.9.T '.XXNX#X/.#.u [ C % C F.' OXcX(.; zX            ",
"              jX$ f.E.Y.$X0XaXaXqXmXeXOX#.A -.^. .r t  ...$ f..Xd.f 9.c.c.N.x.f f 3XSXcXMXvX+XMX] O S MX(.* F.F.O.O.            ",
"                jXS / E.E.W.<X3XrX[.[ 8 O./.:.q e e 2.X.X.@.& ~.MXE.= T T m T b : z - *.MXSXAXvXC 8 : ~.a.F.OXOXu $ zX          ",
"                  jXO S [ F.S ` S ` /.gX;.o.Z r  .1.<.1.X.X.o.. I.] $ k C h l k W j 9 W W V l 0 ; A #.O * OXOXU.E.~.O jX        ",
"                    > = A ` ' L.}.^.gX1.# e e ;.<.<.1.gX;.o.$.! O (.U.< #.-.-.&.&.&.&.*.] &.&.=.8 8 C ` G.' y XXnXMXI.g         ",
"                      , Z %.%.%.Z | e # 2.gXkX1.<.,.<.<.1.;.o.$ I.VXcX: ! -.=.-.&.-.-.*.*.-.*.&.B g U.nXnXz.f m 3XNXzXO         ",
"                         .o , , | o.2.kXxXxXxXkXgX<.<.,.,.@.o #.nX<XH.: C V E w V @.&.*.*.&.-.&.= ' cX(.h.E.3XH.u U.C ^.        ",
"                          o e Z 2.gXgXkXkXkXxXxXkX<.,.,.! O U.(.F.[ h C ` & V E &.&.*.*.*.*.-.! B g D .XeXsXeXnX' #.^.          ",
"                          ;.X Z e o.,.1.1.kXhXhXgX;.O.$ ! OXvX(.& * ` #.< V ! @.-.&.&.-.&.*.~ V O < f.d T.4XeXnXg !.            ",
"                            X.. q q Z 2.,.!.:.O.V 4 W I.3XrX(.[ h C O.B C ! ! @.&.Q ! &._ ! A - G.XXbXXX% h #.A $.              ",
"                              ;.8 < > < q < A C G.@X.XH.f./ u % h B : = g 8 9 5 8 8 g 8 j Q o %.mXeXmXmX(.B                     ",
"                                  ! B W ! j C J.E.E.H.f : ^ ^ j 5 C z ] -.J.*.*.*.{ *.*.W ; O.O.^ [.OXoXV @.                    ",
"                                  $.; ! #.P.[ z x d d [ L. XP.! 3 V ] } J.J.'.J.'.J.I.P.#.o CXZXcX XL.%.$.                      ",
"                                  ;.9 C l z ( ^ ] [ -.L.` j 3 : _ %.j j j W R R { { ( 4 & & |.oXzX}.                            ",
"                                      Q k R ` J.I.I.J.+.j g C k _ +.& j ( { J.'.K.{ ( ) G.J.] W k 8 8                           ",
"                                      ..C ` P. XP.] ( G.J.P.~.I.P.G.*.z x G. X'.P.K.'.'.'.'.'.'.'. X-.X                         ",
"                                      V V ! ] *.*.*.J.P.J.J.P.J.P.'.J.] 8 k #.*.G.*.{ *.{ ) } { { ) ] 8 V                       ",
"                                      Q q q w 8 5 5 3 = = : : = ; - ; > > > q 8 8 > > > 2 , , > > 8 q 8                         ",
"                                                                                                                                ",
"                                                                                                                                ",
"                                                                                                                                ",
"                                                                                                                                ",
"                                                                                                                                "
};
