/* XPM */
static char *_d8f4274d7964d068e059a5fc1b19b90f4DI0kKTLHDCKqz7[] = {
/* columns rows colors chars-per-pixel */
"64 64 5 1 ",
"  c None",
". c #B40000",
"X c #FC74B3",
"o c #FCBBB0",
"O c white",
/* pixels */
"                          ....    ....     ....                 ",
"                          ....    ....     ....                 ",
"                          oooo....oooo.....oooo                 ",
"                          oooo....oooo.....oooo                 ",
"                          ....ooooooooooooo....                 ",
"                          ....ooooooooooooo....                 ",
"                     ..................................         ",
"                     ..................................         ",
"                 ...........................................    ",
"                 ...........................................    ",
"             ...................................................",
"             ...................................................",
"             .........................ooooooooo....oooo.........",
"             .........................ooooooooo....oooo.........",
"             .........................ooooooooooooooooo.........",
"             .........................ooooooooooooooooo.........",
"             .............oooo....oooo.........oooo.........    ",
"             .............oooo....oooo.........oooo.........    ",
"         .................oooo....ooooOOOOO....ooooOOOO.....    ",
"         .................oooo....ooooOOOOO....ooooOOOO.....    ",
"    ......................XXXXooooooooooooooooooooooooo.....    ",
"    ......................XXXXooooooooooooooooooooooooo.....    ",
"    ..........................oooo....oooooooooXXXXoooo.....    ",
"    ..........................oooo....oooooooooXXXXoooo.....    ",
"    ..........................oooooooo.....oooooooo....         ",
"    ..........................oooooooo.....oooooooo....         ",
"    .................XXXXXXXXXXXXX.................             ",
"    .................XXXXXXXXXXXXX.................             ",
"    .............XXXXXXXXXXXXXXXXXXXXX.....XXXX....             ",
"    .............XXXXXXXXXXXXXXXXXXXXX.....XXXX....             ",
"         ........XXXXXXXXXXXXXXXXXXXXX.........XXXX....         ",
"         ........XXXXXXXXXXXXXXXXXXXXX.........XXXX....         ",
"         .....................XXXXXXXX.....XXXX........         ",
"         .....................XXXXXXXX.....XXXX........         ",
"             ........ooooooooo........XXXXXXXXX....             ",
"             ........ooooooooo........XXXXXXXXX....             ",
"             ....ooooooooooooo....XXXXXXXXX....                 ",
"             ....ooooooooooooo....XXXXXXXXX....                 ",
"             ....ooooooooo.................oooo....             ",
"             ....ooooooooo.................oooo....             ",
"             ....ooooooooooooo.............oooo....             ",
"             ....ooooooooooooo.............oooo....             ",
"                 ....oooooooooooooooooooooo....oooo....         ",
"                 ....oooooooooooooooooooooo....oooo....         ",
"             ....XXXX.................ooooooooo....oooo.....    ",
"             ....XXXX.................ooooooooo....oooo.....    ",
"         ....XXXXXXXXXXXXXXXXXXXXXXXXX.....oooo.............    ",
"         ....XXXXXXXXXXXXXXXXXXXXXXXXX.....oooo.............    ",
"         ....XXXXXXXX.....XXXXXXXXXXXXXXXXX............         ",
"         ....XXXXXXXX.....XXXXXXXXXXXXXXXXX............         ",
"    .....XXXXXXXXXXXX.....XXXXXXXXXXXXXXXXXXXXXXXXX....         ",
"    .....XXXXXXXXXXXX.....XXXXXXXXXXXXXXXXXXXXXXXXX....         ",
"    .....XXXXXXXXXXXX.....XXXXXXXXXXXXXXXXX....XXXXXXXX.....    ",
"    .....XXXXXXXXXXXX.....XXXXXXXXXXXXXXXXX....XXXXXXXX.....    ",
"    .....XXXXXXXXXXXX.....XXXXXXXXXXXXXXXXX....XXXXXXXX.....    ",
"    .....XXXXXXXXXXXX.....XXXXXXXXXXXXXXXXX....XXXXXXXX.....    ",
"....XXXXXXXXXXXXX....XXXXXXXXX....XXXXXXXXXXXXX....XXXX.....    ",
"....XXXXXXXXXXXXX....XXXXXXXXX....XXXXXXXXXXXXX....XXXX.....    ",
"....XXXXXXXXXXXXX....XXXXXXXXX....XXXXXXXXXXXXX....XXXX.....    ",
"....XXXXXXXXXXXXX....XXXXXXXXX....XXXXXXXXXXXXX....XXXX.....    ",
"....XXXXXXXXXXXXX....XXXXXXXXX....XXXXXXXXXXXXX....XXXX.....    ",
"....XXXXXXXXXXXXX....XXXXXXXXX....XXXXXXXXXXXXX....XXXX.....    ",
"............................................................    ",
"............................................................    "
};
