/* XPM */
static char *b9bc821de8674ffc9b6520fc94bce8841JoRzrwFfL92fEuD[] = {
/* columns rows colors chars-per-pixel */
"64 64 5 1 ",
"  c #9C3232",
". c #AD3C3C",
"X c #C04B4B",
"o c #C79FA0",
"O c #D9B4B6",
/* pixels */
"XXXXXXXXXXXXXXXXXX..ooXXXXXXXXXXXXXXXXXX..ooXXXXXXXXXXXXXXXXXX..",
"XXXXXXXXXXXXXXXXXX..ooXXXXXXXXXXXXXXXXXX..ooXXXXXXXXXXXXXXXXXX..",
"XX................  OOXX................  OOXX................  ",
"XX................  OOXX................  OOXX................  ",
"XX................  OOXX................  OOXX................  ",
"XX................  OOXX................  OOXX................  ",
"XX................  OOXX................  OOXX................  ",
"..                  oo..                  oo..                  ",
"..                  oo..                  oo..                  ",
"ooOOOOOooooooOOOOOooooooOOOOOooooooOOOOOooooooOOOOOooooooOOOOOoo",
"ooOOOOOooooooOOOOOooooooOOOOOooooooOOOOOooooooOOOOOooooooOOOOOoo",
"XXXXXXX..ooXXXXXXXXXXXXXXXXXX..ooXXXXXXXXXXXXXXXXXX..ooXXXXXXXXX",
"XXXXXXX..ooXXXXXXXXXXXXXXXXXX..ooXXXXXXXXXXXXXXXXXX..ooXXXXXXXXX",
".......  OOXX................  OOXX................  OOXX.......",
".......  OOXX................  OOXX................  OOXX.......",
".......  OOXX................  OOXX................  OOXX.......",
".......  OOXX................  OOXX................  OOXX.......",
".......  OOXX................  OOXX................  OOXX.......",
"         oo..                  oo..                  oo..       ",
"         oo..                  oo..                  oo..       ",
"ooOOOOOooooooOOOOOooooooOOOOOooooooOOOOOooooooOOOOOooooooOOOOOoo",
"ooOOOOOooooooOOOOOooooooOOOOOooooooOOOOOooooooOOOOOooooooOOOOOoo",
"XXXXXXXXXXXXXXXXXX..ooXXXXXXXXXXXXXXXXXX..ooXXXXXXXXXXXXXXXXXX..",
"XXXXXXXXXXXXXXXXXX..ooXXXXXXXXXXXXXXXXXX..ooXXXXXXXXXXXXXXXXXX..",
"XX................  OOXX................  OOXX................  ",
"XX................  OOXX................  OOXX................  ",
"XX................  OOXX................  OOXX................  ",
"XX................  OOXX................  OOXX................  ",
"XX................  OOXX................  OOXX................  ",
"..                  oo..                  oo..                  ",
"..                  oo..                  oo..                  ",
"ooOOOOOooooooOOOOOooooooOOOOOooooooOOOOOooooooOOOOOooooooOOOOOoo",
"ooOOOOOooooooOOOOOooooooOOOOOooooooOOOOOooooooOOOOOooooooOOOOOoo",
"XXXXXXX..ooXXXXXXXXXXXXXXXXXX..ooXXXXXXXXXXXXXXXXXX..ooXXXXXXXXX",
"XXXXXXX..ooXXXXXXXXXXXXXXXXXX..ooXXXXXXXXXXXXXXXXXX..ooXXXXXXXXX",
".......  OOXX................  OOXX................  OOXX.......",
".......  OOXX................  OOXX................  OOXX.......",
".......  OOXX................  OOXX................  OOXX.......",
".......  OOXX................  OOXX................  OOXX.......",
".......  OOXX................  OOXX................  OOXX.......",
"         oo..                  oo..                  oo..       ",
"         oo..                  oo..                  oo..       ",
"ooOOOOOooooooOOOOOooooooOOOOOooooooOOOOOooooooOOOOOooooooOOOOOoo",
"ooOOOOOooooooOOOOOooooooOOOOOooooooOOOOOooooooOOOOOooooooOOOOOoo",
"XXXXXXXXXXXXXXXXXX..ooXXXXXXXXXXXXXXXXXX..ooXXXXXXXXXXXXXXXXXX..",
"XXXXXXXXXXXXXXXXXX..ooXXXXXXXXXXXXXXXXXX..ooXXXXXXXXXXXXXXXXXX..",
"XX................  OOXX................  OOXX................  ",
"XX................  OOXX................  OOXX................  ",
"XX................  OOXX................  OOXX................  ",
"XX................  OOXX................  OOXX................  ",
"XX................  OOXX................  OOXX................  ",
"..                  oo..                  oo..                  ",
"..                  oo..                  oo..                  ",
"ooOOOOOooooooOOOOOooooooOOOOOooooooOOOOOooooooOOOOOooooooOOOOOoo",
"ooOOOOOooooooOOOOOooooooOOOOOooooooOOOOOooooooOOOOOooooooOOOOOoo",
"XXXXXXX..ooXXXXXXXXXXXXXXXXXX..ooXXXXXXXXXXXXXXXXXX..ooXXXXXXXXX",
"XXXXXXX..ooXXXXXXXXXXXXXXXXXX..ooXXXXXXXXXXXXXXXXXX..ooXXXXXXXXX",
".......  OOXX................  OOXX................  OOXX.......",
".......  OOXX................  OOXX................  OOXX.......",
".......  OOXX................  OOXX................  OOXX.......",
".......  OOXX................  OOXX................  OOXX.......",
".......  OOXX................  OOXX................  OOXX.......",
"         oo..                  oo..                  oo..       ",
"         oo..                  oo..                  oo..       "
};
